{
  "accessors": [
    {
      "bufferView": 2,
      "componentType": 5126,
      "count": 65532,
      "max": [
        1.4303690195083618,
        -12.091054916381836,
        1.3798199892044067
      ],
      "min": [
        -1.3232359886169434,
        -15.3912353515625,
        -1.5299609899520874
      ],
      "type": "VEC3"
    },
    {
      "bufferView": 2,
      "byteOffset": 786384,
      "componentType": 5126,
      "count": 65532,
      "max": [
        0.9999971985816956,
        0.9901644587516785,
        0.9999843835830688
      ],
      "min": [
        -0.9999530911445618,
        -0.9999984502792358,
        -0.9502803087234497
      ],
      "type": "VEC3"
    },
    {
      "bufferView": 1,
      "componentType": 5126,
      "count": 65532,
      "max": [
        0.7039740085601807,
        0.600803017616272
      ],
      "min": [
        0.084477998316288,
        0.012039000168442726
      ],
      "type": "VEC2"
    },
    {
      "bufferView": 0,
      "componentType": 5125,
      "count": 344763,
      "type": "SCALAR"
    },
    {
      "bufferView": 2,
      "byteOffset": 1572768,
      "componentType": 5126,
      "count": 65532,
      "max": [
        1.4255770444869995,
        -11.860516548156738,
        1.3762060403823853
      ],
      "min": [
        -0.2393610030412674,
        -15.170541763305664,
        -1.5892219543457031
      ],
      "type": "VEC3"
    },
    {
      "bufferView": 2,
      "byteOffset": 2359152,
      "componentType": 5126,
      "count": 65532,
      "max": [
        0.9999958276748657,
        0.9998164176940918,
        0.9997714757919312
      ],
      "min": [
        -0.9998670816421509,
        -0.9998117685317993,
        -0.9999575018882751
      ],
      "type": "VEC3"
    },
    {
      "bufferView": 1,
      "byteOffset": 524256,
      "componentType": 5126,
      "count": 65532,
      "max": [
        0.964477002620697,
        0.9985719919204712
      ],
      "min": [
        0.024383999407291412,
        0.004004000220447779
      ],
      "type": "VEC2"
    },
    {
      "bufferView": 0,
      "byteOffset": 1379052,
      "componentType": 5125,
      "count": 332016,
      "type": "SCALAR"
    },
    {
      "bufferView": 2,
      "byteOffset": 3145536,
      "componentType": 5126,
      "count": 65532,
      "max": [
        1.3579210042953491,
        -11.321054458618164,
        1.1318529844284058
      ],
      "min": [
        -0.09156599640846252,
        -13.24431037902832,
        -1.4680370092391968
      ],
      "type": "VEC3"
    },
    {
      "bufferView": 2,
      "byteOffset": 3931920,
      "componentType": 5126,
      "count": 65532,
      "max": [
        0.9999818205833435,
        0.9999139308929443,
        0.9999955892562866
      ],
      "min": [
        -0.9997748732566833,
        -0.9999509453773499,
        -0.9999805688858032
      ],
      "type": "VEC3"
    },
    {
      "bufferView": 1,
      "byteOffset": 1048512,
      "componentType": 5126,
      "count": 65532,
      "max": [
        0.9817860126495361,
        0.9998049736022949
      ],
      "min": [
        0.0042779999785125256,
        0.003065000055357814
      ],
      "type": "VEC2"
    },
    {
      "bufferView": 0,
      "byteOffset": 2707116,
      "componentType": 5125,
      "count": 319635,
      "type": "SCALAR"
    },
    {
      "bufferView": 2,
      "byteOffset": 4718304,
      "componentType": 5126,
      "count": 65532,
      "max": [
        1.1829520463943481,
        -11.316871643066406,
        1.3819739818572998
      ],
      "min": [
        -1.4129040241241455,
        -15.391215324401855,
        -0.337675005197525
      ],
      "type": "VEC3"
    },
    {
      "bufferView": 2,
      "byteOffset": 5504688,
      "componentType": 5126,
      "count": 65532,
      "max": [
        0.9999821186065674,
        0.9998837113380432,
        0.9999955892562866
      ],
      "min": [
        -0.999894917011261,
        -0.9999984502792358,
        -0.9998811483383179
      ],
      "type": "VEC3"
    },
    {
      "bufferView": 1,
      "byteOffset": 1572768,
      "componentType": 5126,
      "count": 65532,
      "max": [
        0.9809479713439941,
        0.9999290108680725
      ],
      "min": [
        0.0004130000015720725,
        0.10468699783086777
      ],
      "type": "VEC2"
    },
    {
      "bufferView": 0,
      "byteOffset": 3985656,
      "componentType": 5125,
      "count": 308040,
      "type": "SCALAR"
    },
    {
      "bufferView": 2,
      "byteOffset": 6291072,
      "componentType": 5126,
      "count": 65532,
      "max": [
        1.2842830419540405,
        -11.326597213745117,
        1.6304579973220825
      ],
      "min": [
        -1.206624984741211,
        -15.257349014282227,
        -0.8291069865226746
      ],
      "type": "VEC3"
    },
    {
      "bufferView": 2,
      "byteOffset": 7077456,
      "componentType": 5126,
      "count": 65532,
      "max": [
        0.9999836683273315,
        0.9999983310699463,
        0.9999988675117493
      ],
      "min": [
        -0.9998877644538879,
        -0.997418224811554,
        -0.9988506436347961
      ],
      "type": "VEC3"
    },
    {
      "bufferView": 1,
      "byteOffset": 2097024,
      "componentType": 5126,
      "count": 65532,
      "max": [
        0.9686020016670227,
        0.9957559704780579
      ],
      "min": [
        0.04574299976229668,
        0.07178899645805359
      ],
      "type": "VEC2"
    },
    {
      "bufferView": 0,
      "byteOffset": 5217816,
      "componentType": 5125,
      "count": 338697,
      "type": "SCALAR"
    },
    {
      "bufferView": 2,
      "byteOffset": 7863840,
      "componentType": 5126,
      "count": 65532,
      "max": [
        0.7096009850502014,
        -11.305702209472656,
        0.8848699927330017
      ],
      "min": [
        -1.4551119804382324,
        -13.745762825012207,
        -1.5992039442062378
      ],
      "type": "VEC3"
    },
    {
      "bufferView": 2,
      "byteOffset": 8650224,
      "componentType": 5126,
      "count": 65532,
      "max": [
        0.999932587146759,
        0.99973464012146,
        0.9999720454216003
      ],
      "min": [
        -0.9999875426292419,
        -0.9988003969192505,
        -0.9943763017654419
      ],
      "type": "VEC3"
    },
    {
      "bufferView": 1,
      "byteOffset": 2621280,
      "componentType": 5126,
      "count": 65532,
      "max": [
        0.9653720259666443,
        0.9554219841957092
      ],
      "min": [
        0.01602499932050705,
        0.003963999915868044
      ],
      "type": "VEC2"
    },
    {
      "bufferView": 0,
      "byteOffset": 6572604,
      "componentType": 5125,
      "count": 345252,
      "type": "SCALAR"
    },
    {
      "bufferView": 2,
      "byteOffset": 9436608,
      "componentType": 5126,
      "count": 65532,
      "max": [
        0.13109299540519714,
        -11.30631160736084,
        1.5033149719238281
      ],
      "min": [
        -1.5266870260238647,
        -15.369747161865234,
        -1.195878028869629
      ],
      "type": "VEC3"
    },
    {
      "bufferView": 2,
      "byteOffset": 10222992,
      "componentType": 5126,
      "count": 65532,
      "max": [
        0.9997310042381287,
        0.9999721646308899,
        0.9999818205833435
      ],
      "min": [
        -0.999973475933075,
        -0.9999961853027344,
        -0.9957614541053772
      ],
      "type": "VEC3"
    },
    {
      "bufferView": 1,
      "byteOffset": 3145536,
      "componentType": 5126,
      "count": 65532,
      "max": [
        0.9709830284118652,
        0.9962999820709229
      ],
      "min": [
        0.05904499813914299,
        0.09578900039196014
      ],
      "type": "VEC2"
    },
    {
      "bufferView": 0,
      "byteOffset": 7953612,
      "componentType": 5125,
      "count": 335022,
      "type": "SCALAR"
    },
    {
      "bufferView": 2,
      "byteOffset": 11009376,
      "componentType": 5126,
      "count": 65532,
      "max": [
        0.07022900134325027,
        -11.448013305664063,
        1.4996049404144287
      ],
      "min": [
        -1.5265740156173706,
        -14.550642013549805,
        -0.7856249809265137
      ],
      "type": "VEC3"
    },
    {
      "bufferView": 2,
      "byteOffset": 11795760,
      "componentType": 5126,
      "count": 65532,
      "max": [
        0.9999921321868896,
        0.9999579787254333,
        0.9999192953109741
      ],
      "min": [
        -0.9999972581863403,
        -0.9999971985816956,
        -0.9999386072158813
      ],
      "type": "VEC3"
    },
    {
      "bufferView": 1,
      "byteOffset": 3669792,
      "componentType": 5126,
      "count": 65532,
      "max": [
        0.996366024017334,
        0.9986500144004822
      ],
      "min": [
        0.02102299965918064,
        0.005359000060707331
      ],
      "type": "VEC2"
    },
    {
      "bufferView": 0,
      "byteOffset": 9293700,
      "componentType": 5125,
      "count": 325059,
      "type": "SCALAR"
    },
    {
      "bufferView": 2,
      "byteOffset": 12582144,
      "componentType": 5126,
      "count": 65532,
      "max": [
        0.20550799369812012,
        -11.391944885253906,
        1.7586849927902222
      ],
      "min": [
        -1.431054949760437,
        -12.751055717468262,
        0.0011470000026747584
      ],
      "type": "VEC3"
    },
    {
      "bufferView": 2,
      "byteOffset": 13368528,
      "componentType": 5126,
      "count": 65532,
      "max": [
        0.9999921321868896,
        0.9999183416366577,
        0.9999561905860901
      ],
      "min": [
        -0.9999212622642517,
        -0.9999560117721558,
        -0.9999666810035706
      ],
      "type": "VEC3"
    },
    {
      "bufferView": 1,
      "byteOffset": 4194048,
      "componentType": 5126,
      "count": 65532,
      "max": [
        0.9905099868774414,
        0.9991160035133362
      ],
      "min": [
        0.001959000015631318,
        0.00596500001847744
      ],
      "type": "VEC2"
    },
    {
      "bufferView": 0,
      "byteOffset": 10593936,
      "componentType": 5125,
      "count": 320589,
      "type": "SCALAR"
    },
    {
      "bufferView": 2,
      "byteOffset": 14154912,
      "componentType": 5126,
      "count": 65532,
      "max": [
        0.3211210072040558,
        -11.310818672180176,
        1.761502981185913
      ],
      "min": [
        -1.47565495967865,
        -13.89378547668457,
        -0.46257999539375305
      ],
      "type": "VEC3"
    },
    {
      "bufferView": 2,
      "byteOffset": 14941296,
      "componentType": 5126,
      "count": 65532,
      "max": [
        0.999939501285553,
        0.9999583959579468,
        0.9999816417694092
      ],
      "min": [
        -0.9999972581863403,
        -0.9998690485954285,
        -0.9997228980064392
      ],
      "type": "VEC3"
    },
    {
      "bufferView": 1,
      "byteOffset": 4718304,
      "componentType": 5126,
      "count": 65532,
      "max": [
        0.994517982006073,
        0.9992589950561523
      ],
      "min": [
        0.0022960000205785036,
        0.003539999946951866
      ],
      "type": "VEC2"
    },
    {
      "bufferView": 0,
      "byteOffset": 11876292,
      "componentType": 5125,
      "count": 298098,
      "type": "SCALAR"
    },
    {
      "bufferView": 2,
      "byteOffset": 15727680,
      "componentType": 5126,
      "count": 65532,
      "max": [
        0.6979860067367554,
        -11.581854820251465,
        1.7021420001983643
      ],
      "min": [
        -1.4613100290298462,
        -15.16201400756836,
        -1.6556240320205688
      ],
      "type": "VEC3"
    },
    {
      "bufferView": 2,
      "byteOffset": 16514064,
      "componentType": 5126,
      "count": 65532,
      "max": [
        0.9999529123306274,
        0.9999983310699463,
        0.9999959468841553
      ],
      "min": [
        -0.9999784231185913,
        -0.9988663196563721,
        -0.999988853931427
      ],
      "type": "VEC3"
    },
    {
      "bufferView": 1,
      "byteOffset": 5242560,
      "componentType": 5126,
      "count": 65532,
      "max": [
        0.9904929995536804,
        0.9990479946136475
      ],
      "min": [
        0.016547000035643578,
        0.0052269999869167805
      ],
      "type": "VEC2"
    },
    {
      "bufferView": 0,
      "byteOffset": 13068684,
      "componentType": 5125,
      "count": 279297,
      "type": "SCALAR"
    },
    {
      "bufferView": 2,
      "byteOffset": 17300448,
      "componentType": 5126,
      "count": 65532,
      "max": [
        0.7016040086746216,
        -11.30280876159668,
        1.7965810298919678
      ],
      "min": [
        -1.4283419847488403,
        -15.361316680908203,
        -1.6610859632492065
      ],
      "type": "VEC3"
    },
    {
      "bufferView": 2,
      "byteOffset": 18086832,
      "componentType": 5126,
      "count": 65532,
      "max": [
        0.9999803900718689,
        0.9999619126319885,
        0.9998681545257568
      ],
      "min": [
        -0.9999991059303284,
        -0.999595582485199,
        -0.9999985098838806
      ],
      "type": "VEC3"
    },
    {
      "bufferView": 1,
      "byteOffset": 5766816,
      "componentType": 5126,
      "count": 65532,
      "max": [
        0.9243299961090088,
        0.9973359704017639
      ],
      "min": [
        0.049807000905275345,
        0.014097999781370163
      ],
      "type": "VEC2"
    },
    {
      "bufferView": 0,
      "byteOffset": 14185872,
      "componentType": 5125,
      "count": 330876,
      "type": "SCALAR"
    },
    {
      "bufferView": 2,
      "byteOffset": 18873216,
      "componentType": 5126,
      "count": 65532,
      "max": [
        1.0561460256576538,
        -11.401152610778809,
        1.742277979850769
      ],
      "min": [
        -0.5658810138702393,
        -13.627826690673828,
        0.4588890075683594
      ],
      "type": "VEC3"
    },
    {
      "bufferView": 2,
      "byteOffset": 19659600,
      "componentType": 5126,
      "count": 65532,
      "max": [
        0.9999080300331116,
        0.9999492764472961,
        0.999983549118042
      ],
      "min": [
        -0.9999696016311646,
        -0.9999028444290161,
        -0.999613881111145
      ],
      "type": "VEC3"
    },
    {
      "bufferView": 1,
      "byteOffset": 6291072,
      "componentType": 5126,
      "count": 65532,
      "max": [
        0.9904239773750305,
        0.9987649917602539
      ],
      "min": [
        0.0013170000165700912,
        0.00636899983510375
      ],
      "type": "VEC2"
    },
    {
      "bufferView": 0,
      "byteOffset": 15509376,
      "componentType": 5125,
      "count": 316716,
      "type": "SCALAR"
    },
    {
      "bufferView": 2,
      "byteOffset": 20445984,
      "componentType": 5126,
      "count": 62002,
      "max": [
        1.3039339780807495,
        -11.65466022491455,
        1.6947460174560547
      ],
      "min": [
        -0.6873319745063782,
        -14.348103523254395,
        0.3800419867038727
      ],
      "type": "VEC3"
    },
    {
      "bufferView": 2,
      "byteOffset": 21190008,
      "componentType": 5126,
      "count": 62002,
      "max": [
        0.9999179840087891,
        0.9999682307243347,
        0.9999924898147583
      ],
      "min": [
        -0.9999991059303284,
        -0.9999784231185913,
        -0.999613881111145
      ],
      "type": "VEC3"
    },
    {
      "bufferView": 1,
      "byteOffset": 6815328,
      "componentType": 5126,
      "count": 62002,
      "max": [
        0.9963529706001282,
        0.999629020690918
      ],
      "min": [
        0.0022509999107569456,
        0.0035039999056607485
      ],
      "type": "VEC2"
    },
    {
      "bufferView": 0,
      "byteOffset": 16776240,
      "componentType": 5125,
      "count": 277638,
      "type": "SCALAR"
    }
  ],
  "asset": {
    "extras": {
      "author": "UNCG Imaging Lab (https://sketchfab.com/uncgimaginglab)",
      "license": "CC-BY-4.0 (http://creativecommons.org/licenses/by/4.0/)",
      "source": "https://sketchfab.com/3d-models/cranium-c39855833ff74943a2847972c9ff8700",
      "title": "Cranium"
    },
    "generator": "Sketchfab-12.68.0",
    "version": "2.0"
  },
  "bufferViews": [
    {
      "buffer": 0,
      "byteLength": 17886792,
      "name": "floatBufferViews",
      "target": 34963
    },
    {
      "buffer": 0,
      "byteLength": 7311344,
      "byteOffset": 17886792,
      "byteStride": 8,
      "name": "floatBufferViews",
      "target": 34962
    },
    {
      "buffer": 0,
      "byteLength": 21934032,
      "byteOffset": 25198136,
      "byteStride": 12,
      "name": "floatBufferViews",
      "target": 34962
    }
  ],
  "buffers": [
    {
      "byteLength": 47132168,
      "uri": "scene.bin"
    }
  ],
  "images": [
    {
      "uri": "textures/material_0_baseColor.jpeg"
    }
  ],
  "materials": [
    {
      "doubleSided": true,
      "name": "material_0",
      "pbrMetallicRoughness": {
        "baseColorTexture": {
          "index": 0
        },
        "metallicFactor": 0.0,
        "roughnessFactor": 0.6
      }
    }
  ],
  "meshes": [
    {
      "name": "Object_0",
      "primitives": [
        {
          "attributes": {
            "NORMAL": 1,
            "POSITION": 0,
            "TEXCOORD_0": 2
          },
          "indices": 3,
          "material": 0,
          "mode": 4
        }
      ]
    },
    {
      "name": "Object_1",
      "primitives": [
        {
          "attributes": {
            "NORMAL": 5,
            "POSITION": 4,
            "TEXCOORD_0": 6
          },
          "indices": 7,
          "material": 0,
          "mode": 4
        }
      ]
    },
    {
      "name": "Object_2",
      "primitives": [
        {
          "attributes": {
            "NORMAL": 9,
            "POSITION": 8,
            "TEXCOORD_0": 10
          },
          "indices": 11,
          "material": 0,
          "mode": 4
        }
      ]
    },
    {
      "name": "Object_3",
      "primitives": [
        {
          "attributes": {
            "NORMAL": 13,
            "POSITION": 12,
            "TEXCOORD_0": 14
          },
          "indices": 15,
          "material": 0,
          "mode": 4
        }
      ]
    },
    {
      "name": "Object_4",
      "primitives": [
        {
          "attributes": {
            "NORMAL": 17,
            "POSITION": 16,
            "TEXCOORD_0": 18
          },
          "indices": 19,
          "material": 0,
          "mode": 4
        }
      ]
    },
    {
      "name": "Object_5",
      "primitives": [
        {
          "attributes": {
            "NORMAL": 21,
            "POSITION": 20,
            "TEXCOORD_0": 22
          },
          "indices": 23,
          "material": 0,
          "mode": 4
        }
      ]
    },
    {
      "name": "Object_6",
      "primitives": [
        {
          "attributes": {
            "NORMAL": 25,
            "POSITION": 24,
            "TEXCOORD_0": 26
          },
          "indices": 27,
          "material": 0,
          "mode": 4
        }
      ]
    },
    {
      "name": "Object_7",
      "primitives": [
        {
          "attributes": {
            "NORMAL": 29,
            "POSITION": 28,
            "TEXCOORD_0": 30
          },
          "indices": 31,
          "material": 0,
          "mode": 4
        }
      ]
    },
    {
      "name": "Object_8",
      "primitives": [
        {
          "attributes": {
            "NORMAL": 33,
            "POSITION": 32,
            "TEXCOORD_0": 34
          },
          "indices": 35,
          "material": 0,
          "mode": 4
        }
      ]
    },
    {
      "name": "Object_9",
      "primitives": [
        {
          "attributes": {
            "NORMAL": 37,
            "POSITION": 36,
            "TEXCOORD_0": 38
          },
          "indices": 39,
          "material": 0,
          "mode": 4
        }
      ]
    },
    {
      "name": "Object_10",
      "primitives": [
        {
          "attributes": {
            "NORMAL": 41,
            "POSITION": 40,
            "TEXCOORD_0": 42
          },
          "indices": 43,
          "material": 0,
          "mode": 4
        }
      ]
    },
    {
      "name": "Object_11",
      "primitives": [
        {
          "attributes": {
            "NORMAL": 45,
            "POSITION": 44,
            "TEXCOORD_0": 46
          },
          "indices": 47,
          "material": 0,
          "mode": 4
        }
      ]
    },
    {
      "name": "Object_12",
      "primitives": [
        {
          "attributes": {
            "NORMAL": 49,
            "POSITION": 48,
            "TEXCOORD_0": 50
          },
          "indices": 51,
          "material": 0,
          "mode": 4
        }
      ]
    },
    {
      "name": "Object_13",
      "primitives": [
        {
          "attributes": {
            "NORMAL": 53,
            "POSITION": 52,
            "TEXCOORD_0": 54
          },
          "indices": 55,
          "material": 0,
          "mode": 4
        }
      ]
    }
  ],
  "nodes": [
    {
      "children": [
        1
      ],
      "matrix": [
        0.04503916949033737,
        0.006983892992139085,
        -0.9989607930183411,
        0.0,
        0.9983891844749451,
        -0.03485239669680596,
        0.04476973786950111,
        0.0,
        -0.0345035120844841,
        -0.9993680715560913,
        -0.008542366325855477,
        0.0,
        13.196615219116211,
        -0.7053204774856598,
        13.813039779663086,
        1.0
      ],
      "name": "Sketchfab_model"
    },
    {
      "children": [
        2,
        3,
        4,
        5,
        6,
        7,
        8,
        9,
        10,
        11,
        12,
        13,
        14,
        15
      ],
      "name": "Skull Final.obj.cleaner.gles"
    },
    {
      "mesh": 0,
      "name": "Object_2"
    },
    {
      "mesh": 1,
      "name": "Object_3"
    },
    {
      "mesh": 2,
      "name": "Object_4"
    },
    {
      "mesh": 3,
      "name": "Object_5"
    },
    {
      "mesh": 4,
      "name": "Object_6"
    },
    {
      "mesh": 5,
      "name": "Object_7"
    },
    {
      "mesh": 6,
      "name": "Object_8"
    },
    {
      "mesh": 7,
      "name": "Object_9"
    },
    {
      "mesh": 8,
      "name": "Object_10"
    },
    {
      "mesh": 9,
      "name": "Object_11"
    },
    {
      "mesh": 10,
      "name": "Object_12"
    },
    {
      "mesh": 11,
      "name": "Object_13"
    },
    {
      "mesh": 12,
      "name": "Object_14"
    },
    {
      "mesh": 13,
      "name": "Object_15"
    }
  ],
  "samplers": [
    {
      "magFilter": 9729,
      "minFilter": 9987,
      "wrapS": 10497,
      "wrapT": 10497
    }
  ],
  "scene": 0,
  "scenes": [
    {
      "name": "Sketchfab_Scene",
      "nodes": [
        0
      ]
    }
  ],
  "textures": [
    {
      "sampler": 0,
      "source": 0
    }
  ]
}
