<?xml version="1.0" encoding="UTF-8"?>
<svg version="1.1" xmlns="http://www.w3.org/2000/svg" width="48" height="48">
<path d="M0 0 C1.32 0 2.64 0 4 0 C4.14695312 0.58007812 4.29390625 1.16015625 4.4453125 1.7578125 C6.15338928 7.70663162 7.98119561 11.26049869 13 15 C13.969375 14.814375 14.93875 14.62875 15.9375 14.4375 C19 14 19 14 20.93359375 15.43359375 C22.72672937 17.22672937 24.423784 19.01340824 26 21 C26 21.33 26 21.66 26 22 C19.40907788 22.54924351 14.42990359 21.9620638 9 18 C4.20419969 13.4779757 0.17793618 9.00356398 -0.125 2.1875 C-0.08375 1.465625 -0.0425 0.74375 0 0 Z " fill="#FEFEFE" transform="translate(0,26)"/>
<path d="M0 0 C6.59640519 -0.54970043 11.56258198 0.04350477 17 4 C21.38052105 8.05284427 24.77757064 12.02367867 26 18 C26 19.32 26 20.64 26 22 C24.68 22 23.36 22 22 22 C21.85304688 21.41992188 21.70609375 20.83984375 21.5546875 20.2421875 C19.84661072 14.29336838 18.01880439 10.73950131 13 7 C12.030625 7.185625 11.06125 7.37125 10.0625 7.5625 C7 8 7 8 5.06640625 6.56640625 C3.27327063 4.77327063 1.576216 2.98659176 0 1 C0 0.67 0 0.34 0 0 Z " fill="#FEFEFE" transform="translate(22,0)"/>
<path d="M0 0 C1.423125 -0.061875 2.84625 -0.12375 4.3125 -0.1875 C5.51326172 -0.23970703 5.51326172 -0.23970703 6.73828125 -0.29296875 C9 0 9 0 10.76953125 1.234375 C13.0556769 4.51481257 12.4765505 8.17378293 12 12 C11.0625 14.5625 11.0625 14.5625 9 16 C5.92061635 16.3221341 3.11380019 16.18051016 0 16 C0 10.72 0 5.44 0 0 Z M3 3 C3 6.3 3 9.6 3 13 C4.65 12.67 6.3 12.34 8 12 C8.68493373 9.14221967 8.68493373 9.14221967 9 6 C8.34 5.01 7.68 4.02 7 3 C5.68 3 4.36 3 3 3 Z " fill="#FEFEFE" transform="translate(24,16)"/>
<path d="M0 0 C3.375 -0.125 3.375 -0.125 7 0 C9 2 9 2 9.265625 4.75 C9.26046875 5.8225 9.2553125 6.895 9.25 8 C9.25515625 9.0725 9.2603125 10.145 9.265625 11.25 C9 14 9 14 7 16 C3.375 16.125 3.375 16.125 0 16 C-0.66 14.35 -1.32 12.7 -2 11 C-0.68 11 0.64 11 2 11 C2.66 11.66 3.32 12.32 4 13 C4.66 13 5.32 13 6 13 C5.67 12.01 5.34 11.02 5 10 C4.01 9.67 3.02 9.34 2 9 C2 8.01 2 7.02 2 6 C2.99 5.34 3.98 4.68 5 4 C4.34 3.67 3.68 3.34 3 3 C2.67 3.66 2.34 4.32 2 5 C0.68 5 -0.64 5 -2 5 C-1.34 3.35 -0.68 1.7 0 0 Z " fill="#FEFEFE" transform="translate(13,16)"/>
</svg>
