<?xml version="1.0" encoding="UTF-8"?>
<svg version="1.1" xmlns="http://www.w3.org/2000/svg" width="64" height="64">
<path d="M0 0 C0 2.31 0 4.62 0 7 C-1.01320313 7.45439453 -1.01320313 7.45439453 -2.046875 7.91796875 C-8.25604363 10.83412454 -11.9920871 13.18496549 -15.25 19.375 C-17.15646047 26.04761164 -15.77414752 30.82628156 -12.53515625 36.75390625 C-10.18524939 40.19206514 -8.03476238 41.92507269 -4 43 C2.23713107 43.87636819 7.82701201 43.51962191 13.34765625 40.3359375 C17.48862907 36.98791692 19.22149004 31.8909024 21 27 C23.31 27 25.62 27 28 27 C26.45796587 36.13046526 23.06183128 41.312848 16.1953125 47.484375 C9.84135695 51.87109165 2.42300334 51.83737758 -5 51 C-11.78675002 48.92033926 -17.37440234 45.17428513 -21 39 C-24.38464391 31.12394649 -25.27634927 24.05024597 -22.4375 15.9375 C-19.71769804 9.78961433 -16.33573291 5.55268231 -10.171875 2.68359375 C-3.02809233 0 -3.02809233 0 0 0 Z " fill="#FEFEFE" transform="translate(30,6)"/>
<path d="M0 0 C0.66 0.33 1.32 0.66 2 1 C0.68944504 3.31362209 -0.6233403 5.62592678 -1.9375 7.9375 C-2.31068359 8.59685547 -2.68386719 9.25621094 -3.06835938 9.93554688 C-5.88671875 14.88671875 -5.88671875 14.88671875 -7 16 C-8.99958364 16.04080783 -11.00045254 16.04254356 -13 16 C-13.75 13.25 -13.75 13.25 -14 10 C-11.37906356 6.85610676 -8.36344596 4.78577421 -4.875 2.6875 C-4.00617187 2.15511719 -3.13734375 1.62273438 -2.2421875 1.07421875 C-1.50226562 0.71972656 -0.76234375 0.36523438 0 0 Z " fill="#FEFEFE" transform="translate(42,20)"/>
<path d="M0 0 C6.29785459 0.94592282 10.96066973 2.02158136 16 6 C15.03432113 8.41419718 14.24128309 9.80863755 12.1875 11.4375 C10 12 10 12 7.5625 10.75 C6.716875 10.1725 5.87125 9.595 5 9 C3.34630643 8.30177383 1.68272986 7.62501395 0 7 C0 4.69 0 2.38 0 0 Z " fill="#FEFEFE" transform="translate(33,6)"/>
<path d="M0 0 C1.92578125 0.20703125 1.92578125 0.20703125 4 1 C7.07734828 5.09336168 8.49514774 9.95147745 9 15 C6.69 15 4.38 15 2 15 C1.10570626 13.4274835 0.23512573 11.84146259 -0.625 10.25 C-1.11226562 9.36828125 -1.59953125 8.4865625 -2.1015625 7.578125 C-3 5 -3 5 -2.2109375 2.734375 C-1 1 -1 1 0 0 Z " fill="#FEFEFE" transform="translate(49,15)"/>
</svg>
