<?xml version="1.0" encoding="UTF-8"?>
<svg version="1.1" xmlns="http://www.w3.org/2000/svg" width="700" height="700">
<path d="M0 0 C0.97244302 -0.00551949 1.94488605 -0.01103897 2.94679704 -0.01672572 C4.00949533 -0.01261508 5.07219362 -0.00850444 6.16709489 -0.00426924 C7.87403424 -0.00952835 7.87403424 -0.00952835 9.61545721 -0.01489371 C12.78375275 -0.02261263 15.95190008 -0.02134764 19.12019646 -0.01633817 C22.5634506 -0.01307575 26.00667998 -0.02135056 29.44992626 -0.02815652 C35.48794802 -0.03847335 41.5259377 -0.0412974 47.56396741 -0.03924429 C56.54275141 -0.03619868 65.52149982 -0.04450851 74.50027691 -0.05499355 C91.46823688 -0.07435391 108.4361848 -0.07996252 125.40415452 -0.08110766 C138.50561038 -0.08202608 151.6070615 -0.0861393 164.70851582 -0.09250891 C168.4771955 -0.09430395 172.24587518 -0.09608357 176.01455486 -0.09785867 C176.9514096 -0.09830076 177.88826433 -0.09874286 178.85350861 -0.09919835 C205.21208813 -0.11150991 231.57066599 -0.11939916 257.92924851 -0.1185118 C258.92339878 -0.11848064 259.91754905 -0.11844948 260.94182508 -0.11841738 C265.98080836 -0.11825116 271.01979164 -0.11805308 276.05877493 -0.11784796 C277.55996619 -0.11778813 277.55996619 -0.11778813 279.09148456 -0.11772708 C281.11533489 -0.11764621 283.13918523 -0.11756261 285.16303556 -0.1174763 C316.65574109 -0.1162506 348.14840356 -0.13126618 379.64109677 -0.15862143 C415.0073449 -0.18932854 450.37356473 -0.20655476 485.73982704 -0.20469499 C489.50944978 -0.20454572 493.27907252 -0.20444831 497.04869527 -0.20438635 C497.9769005 -0.20436304 498.90510574 -0.20433974 499.86143841 -0.20431572 C514.81224638 -0.20425412 529.76301704 -0.21703723 544.71381391 -0.23425088 C559.73422071 -0.25118726 574.7545728 -0.25319687 589.77498386 -0.24003224 C598.70274226 -0.23262979 607.63033467 -0.23633958 616.55807556 -0.25591692 C622.51910359 -0.26788617 628.48001097 -0.26536002 634.44103339 -0.25097592 C637.83921593 -0.24318678 641.23681297 -0.24393145 644.63501529 -0.25789063 C648.29498859 -0.27193354 651.95409689 -0.26148553 655.61404008 -0.24477828 C656.66971487 -0.25471464 657.72538966 -0.26465099 658.81305459 -0.27488846 C665.7332756 -0.20779004 671.477665 0.82223428 676.63586127 5.73567436 C680.835968 10.54059036 681.43231276 14.531534 681.36057919 20.68268716 C680.79878386 25.81687225 678.37508499 29.02369288 674.64182919 32.56549966 C670.53827955 35.26783724 667.07465712 36.502571 662.15865839 36.50599933 C660.69999385 36.51427856 660.69999385 36.51427856 659.21186134 36.52272505 C658.14916305 36.51861441 657.08646477 36.51450377 655.9915635 36.51026857 C654.85360393 36.51377464 653.71564437 36.51728072 652.54320118 36.52089304 C649.37490563 36.52861196 646.20675831 36.52734697 643.03846192 36.52233749 C639.59520778 36.51907507 636.15197841 36.52734989 632.70873213 36.53415585 C626.67071037 36.54447268 620.63272068 36.54729672 614.59469098 36.54524362 C605.61590698 36.54219801 596.63715857 36.55050784 587.65838148 36.56099287 C570.6904215 36.58035324 553.72247359 36.58596185 536.75450387 36.58710699 C523.653048 36.58802541 510.55159689 36.59213863 497.45014256 36.59850824 C493.68146289 36.60030327 489.91278321 36.6020829 486.14410353 36.60385799 C485.20724879 36.60430009 484.27039405 36.60474219 483.30514978 36.60519768 C456.94657026 36.61750923 430.58799239 36.62539849 404.22940987 36.62451112 C403.23525961 36.62447997 402.24110934 36.62444881 401.21683331 36.62441671 C396.17785002 36.62425049 391.13886674 36.6240524 386.09988346 36.62384729 C384.59869219 36.62378746 384.59869219 36.62378746 383.06717383 36.62372641 C381.04332349 36.62364554 379.01947316 36.62356194 376.99562282 36.62347563 C345.50291729 36.62224993 314.01025482 36.63726551 282.51756161 36.66462076 C247.15131349 36.69532786 211.78509365 36.71255409 176.41883135 36.71069431 C172.64920861 36.71054505 168.87958586 36.71044764 165.10996312 36.71038568 C164.18175788 36.71036237 163.25355264 36.71033906 162.29721998 36.71031505 C147.346412 36.71025345 132.39564135 36.72303655 117.44484447 36.74025021 C102.42443767 36.75718658 87.40408558 36.7591962 72.38367452 36.74603157 C63.45591613 36.73862911 54.52832371 36.74233891 45.60058283 36.76191625 C39.63955479 36.7738855 33.67864741 36.77135935 27.71762499 36.75697525 C24.31944246 36.7491861 20.92184541 36.74993078 17.5236431 36.76388995 C13.86366979 36.77793287 10.20456149 36.76748486 6.54461831 36.7507776 C5.48894352 36.76071396 4.43326873 36.77065032 3.34560379 36.78088778 C-3.57461721 36.71378936 -9.31900662 35.68376505 -14.47720288 30.77032497 C-18.67730961 25.96540896 -19.27365437 21.97446533 -19.20192081 15.82331216 C-18.64012548 10.68912708 -16.21642661 7.48230645 -12.48317081 3.94049966 C-8.37962116 1.23816209 -4.91599874 0.00342832 0 0 Z " fill="#FEFEFE" transform="translate(18.920670807361603,331.74700033664703)"/>
</svg>
