<?xml version="1.0" encoding="UTF-8"?>
<svg version="1.1" xmlns="http://www.w3.org/2000/svg" width="500" height="500">
<path d="M0 0 C1.01006104 0.00456207 1.01006104 0.00456207 2.04052734 0.00921631 C30.86796709 0.20093344 54.60237992 9.57585614 75.4375 29.75 C82.20825111 36.66419923 87.92019147 44.204577 92.4140625 52.78515625 C93.5126453 54.86878118 94.65301168 56.89837692 95.8359375 58.93359375 C103.67768999 72.69753855 108.53608137 87.44985236 112.46875 102.7578125 C112.72889893 103.76497314 112.98904785 104.77213379 113.25708008 105.80981445 C113.74104087 107.72514135 114.20546018 109.64554596 114.6472168 111.57104492 C115.82879532 116.65135296 115.82879532 116.65135296 119.22265625 120.4296875 C120.07730469 120.76226562 120.93195313 121.09484375 121.8125 121.4375 C122.87210937 121.91123047 122.87210937 121.91123047 123.953125 122.39453125 C124.99726562 122.81798828 124.99726562 122.81798828 126.0625 123.25 C139.23082774 129.0070076 139.23082774 129.0070076 141.8125 135.4375 C142.09338379 138.05072021 142.09338379 138.05072021 142.13476562 141.05371094 C142.15398071 142.18299011 142.1731958 143.31226929 142.19299316 144.47576904 C142.2057428 146.30534149 142.2057428 146.30534149 142.21875 148.171875 C142.23015015 149.43783508 142.24155029 150.70379517 142.2532959 152.00811768 C142.27220287 154.69484795 142.28598926 157.38113149 142.29296875 160.06787109 C142.30168231 162.79335933 142.3292371 165.51756116 142.375 168.24267578 C142.69757692 187.82651309 141.83578102 202.13276623 130.53125 218.59375 C128.52081075 221.92011313 127.16192232 225.37300512 125.8125 229 C120.82933333 242.15529592 112.9110024 251.75110124 100.125 257.875 C92.42524847 261.32531601 85.37392643 261.64257337 77.0625 261.6875 C75.65484375 261.7184375 75.65484375 261.7184375 74.21875 261.75 C65.85981426 261.79618197 57.92080124 260.48879937 51 255.5 C50.27039063 254.97664062 49.54078125 254.45328125 48.7890625 253.9140625 C48.13679688 253.42679688 47.48453125 252.93953125 46.8125 252.4375 C45.843125 251.756875 44.87375 251.07625 43.875 250.375 C41.56918228 248.2089288 40.72949463 246.43857332 39.8125 243.4375 C39.1525 244.118125 38.4925 244.79875 37.8125 245.5 C26.89591915 256.32510112 14.82437758 263.16078077 0.93945312 269.46875 C-1.6685129 270.65658393 -4.26539997 271.86702306 -6.86010742 273.08349609 C-8.07955069 273.65338421 -9.30108791 274.21881273 -10.5246582 274.77978516 C-13.84662044 276.308019 -17.10741462 277.90691547 -20.33984375 279.6171875 C-29.02993269 284.1206942 -35.8547437 286.31764333 -45.69921875 286.20703125 C-49.22361146 286.19533054 -49.22361146 286.19533054 -52.08203125 288.01171875 C-58.63201098 291.01894215 -66.42232167 288.02981149 -73.05078125 286.06640625 C-73.87229675 285.82872025 -74.69381226 285.59103424 -75.54022217 285.34614563 C-78.19633371 284.57346914 -80.84841793 283.78807023 -83.5 283 C-84.86667313 282.59675507 -84.86667313 282.59675507 -86.26095581 282.18536377 C-122.60602285 271.44043351 -157.99077319 258.03728341 -190.875 239 C-191.55167725 238.61134766 -192.22835449 238.22269531 -192.92553711 237.82226562 C-200.23457123 233.46898723 -204.67518889 228.62696428 -207.1875 220.4375 C-208.5698411 214.33013976 -209.44403287 208.12587052 -210.375 201.9375 C-210.63626411 200.2719616 -210.898626 198.60659501 -211.16210938 196.94140625 C-212.83265762 186.26651496 -214.33267661 175.78540416 -214.390625 164.9609375 C-214.39763931 164.08131348 -214.40465363 163.20168945 -214.41188049 162.29541016 C-214.42930749 159.46772085 -214.43573427 156.64024107 -214.4375 153.8125 C-214.43817474 152.8456427 -214.43884949 151.8787854 -214.43954468 150.88262939 C-214.42359114 136.50565734 -213.87164444 122.59304504 -211.1875 108.4375 C-210.99994141 107.37853516 -210.81238281 106.31957031 -210.61914062 105.22851562 C-210.01695198 101.83560159 -209.39031848 98.4484153 -208.75 95.0625 C-208.55704346 94.03302246 -208.36408691 93.00354492 -208.1652832 91.94287109 C-205.03389102 76.43271411 -205.03389102 76.43271411 -199.1875 71.4375 C-197.06640625 70.890625 -197.06640625 70.890625 -194.75 70.6875 C-193.60724609 70.57148438 -193.60724609 70.57148438 -192.44140625 70.453125 C-190.14308924 70.43719213 -188.40079441 70.85883333 -186.1875 71.4375 C-178.02454333 72.21919601 -171.13284003 70.78008005 -163.31640625 68.52734375 C-146.22833836 63.80121065 -130.05648731 62.77235284 -113.1875 68.4375 C-112.88046143 67.90793701 -112.57342285 67.37837402 -112.25708008 66.83276367 C-110.85037297 64.42273757 -109.42547451 62.0239693 -108 59.625 C-107.27586914 58.37493164 -107.27586914 58.37493164 -106.53710938 57.09960938 C-103.89949563 52.69178507 -101.98687374 49.67282476 -97.1875 47.4375 C-95.47519752 45.81775441 -93.81586738 44.1416054 -92.1875 42.4375 C-76.81271885 26.35906754 -58.50355009 13.58193077 -37.5 6.0625 C-36.87279053 5.83618896 -36.24558105 5.60987793 -35.59936523 5.37670898 C-23.87984215 1.4156619 -12.33870739 -0.09736204 0 0 Z M-51.1875 63.4375 C-51.8475 64.4275 -52.5075 65.4175 -53.1875 66.4375 C-52.59582031 66.81261719 -52.00414062 67.18773437 -51.39453125 67.57421875 C-46.27741982 70.88823708 -41.49057758 74.08307823 -37.98095703 79.19482422 C-35.96740556 81.97266469 -34.42510375 84.09461715 -31.03295898 85.03442383 C-28.5836055 85.2068056 -26.20376845 85.21133274 -23.75 85.125 C-17.7769128 84.99831237 -14.30301171 85.13200863 -9.15820312 88.49316406 C-4.8615051 90.55208725 0.12894938 90.27806911 4.8125 90.4375 C5.82296387 90.47987793 6.83342773 90.52225586 7.87451172 90.56591797 C10.99933114 90.68612251 14.1242682 90.78177642 17.25 90.875 C28.83057789 91.26314301 40.2967074 92.17834221 51.8125 93.4375 C48.57055203 83.33996778 44.56841669 74.68751365 37.8125 66.4375 C37.06484375 65.47585937 36.3171875 64.51421875 35.546875 63.5234375 C32.76901121 60.20577955 29.60167988 57.77269106 26.0625 55.3125 C25.44415283 54.87873047 24.82580566 54.44496094 24.1887207 53.99804688 C0.29184455 37.57030778 -30.41035674 44.57824689 -51.1875 63.4375 Z " fill="#E6EBF6" transform="translate(286.1875,105.5625)"/>
<path d="M0 0 C1.01006104 0.00456207 1.01006104 0.00456207 2.04052734 0.00921631 C30.86796709 0.20093344 54.60237992 9.57585614 75.4375 29.75 C82.20825111 36.66419923 87.92019147 44.204577 92.4140625 52.78515625 C93.5126453 54.86878118 94.65301168 56.89837692 95.8359375 58.93359375 C103.67768999 72.69753855 108.53608137 87.44985236 112.46875 102.7578125 C112.72889893 103.76497314 112.98904785 104.77213379 113.25708008 105.80981445 C113.74104087 107.72514135 114.20546018 109.64554596 114.6472168 111.57104492 C115.82879532 116.65135296 115.82879532 116.65135296 119.22265625 120.4296875 C120.07730469 120.76226562 120.93195313 121.09484375 121.8125 121.4375 C122.87210937 121.91123047 122.87210937 121.91123047 123.953125 122.39453125 C124.64921875 122.67683594 125.3453125 122.95914063 126.0625 123.25 C139.23082774 129.0070076 139.23082774 129.0070076 141.8125 135.4375 C142.09338379 138.05072021 142.09338379 138.05072021 142.13476562 141.05371094 C142.15398071 142.18299011 142.1731958 143.31226929 142.19299316 144.47576904 C142.20149292 145.69548401 142.20999268 146.91519897 142.21875 148.171875 C142.23015015 149.43783508 142.24155029 150.70379517 142.2532959 152.00811768 C142.27220287 154.69484795 142.28598926 157.38113149 142.29296875 160.06787109 C142.30168231 162.79335933 142.3292371 165.51756116 142.375 168.24267578 C142.69757692 187.82651309 141.83578102 202.13276623 130.53125 218.59375 C128.52081075 221.92011313 127.16192232 225.37300512 125.8125 229 C120.82933333 242.15529592 112.9110024 251.75110124 100.125 257.875 C92.42524847 261.32531601 85.37392643 261.64257337 77.0625 261.6875 C76.1240625 261.708125 75.185625 261.72875 74.21875 261.75 C65.85981426 261.79618197 57.92080124 260.48879937 51 255.5 C50.26910156 254.97664062 49.53820312 254.45328125 48.78515625 253.9140625 C48.13417969 253.42679688 47.48320312 252.93953125 46.8125 252.4375 C45.86375 251.756875 44.915 251.07625 43.9375 250.375 C41.50301152 248.15531932 40.08940885 246.48789337 38.8125 243.4375 C38.99301754 240.30852928 39.57293989 237.45408521 40.29034424 234.40974426 C41.50696279 229.19038285 42.37054488 224.02868351 42.921875 218.69921875 C43.00596619 217.88692307 43.09005737 217.07462738 43.17669678 216.23771667 C44.00904391 207.47546162 44.11490291 198.73474076 44.07324219 189.9387207 C44.06246333 187.24082202 44.07324963 184.54358269 44.0859375 181.84570312 C44.10301095 162.51162251 43.78733527 141.32311884 29.8125 126.4375 C28.87857422 125.31794922 28.87857422 125.31794922 27.92578125 124.17578125 C21.17018435 116.59664492 12.20055877 112.25324446 2.81323242 108.67553711 C1.10938044 108.01825899 -0.54464919 107.23510096 -2.1875 106.4375 C-3.625 102.75 -3.625 102.75 -4.1875 99.4375 C-4.1875 101.4175 -4.1875 103.3975 -4.1875 105.4375 C-13.40827296 104.22520022 -22.47819218 102.67509963 -31.5625 100.6875 C-32.75262695 100.4301709 -33.94275391 100.1728418 -35.16894531 99.90771484 C-46.90542971 97.33851095 -58.55774674 94.44987085 -70.1875 91.4375 C-68.90172052 88.68139918 -67.49101195 86.41927511 -65.55078125 84.08203125 C-65.05642578 83.45876953 -64.56207031 82.83550781 -64.05273438 82.19335938 C-63.02245059 80.9038847 -61.97555284 79.62750122 -60.91210938 78.36523438 C-57.97305514 74.59196764 -56.81912573 72.29719006 -57.35546875 67.44921875 C-57.60264772 66.10607624 -57.86957232 64.76567591 -58.1875 63.4375 C-63.69986622 60.98341544 -69.29329556 58.95368048 -75 57 C-81.80203759 54.64836388 -88.55751217 52.24652116 -95.1875 49.4375 C-95.1875 45.32907727 -93.0491759 43.65294591 -90.375 40.8125 C-89.87943604 40.28052002 -89.38387207 39.74854004 -88.87329102 39.20043945 C-84.03536026 34.10872564 -78.78875159 29.67339511 -73.1875 25.4375 C-72.42308594 24.84582031 -71.65867188 24.25414062 -70.87109375 23.64453125 C-60.75437041 16.16397609 -49.33097384 10.29807867 -37.5 6.0625 C-36.87279053 5.83618896 -36.24558105 5.60987793 -35.59936523 5.37670898 C-23.87984215 1.4156619 -12.33870739 -0.09736204 0 0 Z M-51.1875 63.4375 C-51.8475 64.4275 -52.5075 65.4175 -53.1875 66.4375 C-52.59582031 66.81261719 -52.00414062 67.18773437 -51.39453125 67.57421875 C-46.27741982 70.88823708 -41.49057758 74.08307823 -37.98095703 79.19482422 C-35.96740556 81.97266469 -34.42510375 84.09461715 -31.03295898 85.03442383 C-28.5836055 85.2068056 -26.20376845 85.21133274 -23.75 85.125 C-17.7769128 84.99831237 -14.30301171 85.13200863 -9.15820312 88.49316406 C-4.8615051 90.55208725 0.12894938 90.27806911 4.8125 90.4375 C5.82296387 90.47987793 6.83342773 90.52225586 7.87451172 90.56591797 C10.99933114 90.68612251 14.1242682 90.78177642 17.25 90.875 C28.83057789 91.26314301 40.2967074 92.17834221 51.8125 93.4375 C48.57055203 83.33996778 44.56841669 74.68751365 37.8125 66.4375 C37.06484375 65.47585937 36.3171875 64.51421875 35.546875 63.5234375 C32.76901121 60.20577955 29.60167988 57.77269106 26.0625 55.3125 C25.44415283 54.87873047 24.82580566 54.44496094 24.1887207 53.99804688 C0.29184455 37.57030778 -30.41035674 44.57824689 -51.1875 63.4375 Z " fill="#252D44" transform="translate(286.1875,105.5625)"/>
<path d="M0 0 C4.80976968 2.14256759 9.60980461 4.06296614 14.6171875 5.703125 C15.65053223 6.04303467 16.68387695 6.38294434 17.74853516 6.7331543 C19.809284 7.40338848 21.8740483 8.06141749 23.94287109 8.70629883 C31.04492849 11.05422049 31.04492849 11.05422049 33.796875 14.05859375 C34.79471449 17.22626345 35.07752641 19.38320337 34.625 22.6875 C33.0859375 25.3984375 33.0859375 25.3984375 31 28.0625 C30.27554688 29.00480469 29.55109375 29.94710937 28.8046875 30.91796875 C27.72574219 32.28888672 27.72574219 32.28888672 26.625 33.6875 C25.4546056 35.24720969 24.28742481 36.8093417 23.125 38.375 C22.29251859 39.47980911 21.45954883 40.58425174 20.625 41.6875 C21.71554688 41.79707031 22.80609375 41.90664062 23.9296875 42.01953125 C29.31387717 42.69520814 34.49527588 44.04934395 39.75 45.375 C51.09443899 48.17714693 62.49378982 50.54297773 73.96142578 52.77026367 C75.17813965 53.00720947 76.39485352 53.24415527 77.6484375 53.48828125 C78.73044434 53.69622314 79.81245117 53.90416504 80.92724609 54.1184082 C83.625 54.6875 83.625 54.6875 86.625 55.6875 C86.295 52.7175 85.965 49.7475 85.625 46.6875 C87.625 48.6875 87.625 48.6875 87.9375 52.5 C88.32268587 54.73139722 88.32268587 54.73139722 89.625 56.6875 C92.72510631 58.3442186 95.85194692 59.38848113 99.18359375 60.50390625 C110.7353219 64.47686156 121.38120364 73.64028708 127.625 84.1875 C128.33677981 85.66662607 129.00258565 87.16860408 129.625 88.6875 C130.17220703 90.00427734 130.17220703 90.00427734 130.73046875 91.34765625 C136.17494172 105.9514231 135.99935545 121.68898733 135.9375 137.0625 C135.93600952 137.97837891 135.93451904 138.89425781 135.9329834 139.83789062 C135.89990285 151.17414979 135.64321817 162.41239251 134.375 173.6875 C134.26583252 174.68056152 134.15666504 175.67362305 134.04418945 176.69677734 C132.51432767 188.21538259 128.4738826 196.95266855 119.51171875 204.45703125 C112.70546302 209.52454602 105.13870027 213.10254458 97.5234375 216.76611328 C94.91189571 218.03359768 92.33329068 219.36356353 89.75 220.6875 C83.96009227 223.59038524 78.05318975 226.20851329 72.11767578 228.796875 C71.03075439 229.27253906 71.03075439 229.27253906 69.921875 229.7578125 C69.20322266 230.07105469 68.48457031 230.38429688 67.74414062 230.70703125 C65.64923393 231.67628762 63.66077258 232.7678349 61.640625 233.8828125 C57.34242827 236.06165617 53.38598627 236.34673596 48.625 236.4375 C47.85027344 236.46714844 47.07554687 236.49679687 46.27734375 236.52734375 C44.39376444 236.59710595 42.50938415 236.64467309 40.625 236.6875 C41.74812966 233.31811102 43.15674093 232.15575907 45.625 229.6875 C52.9349179 207.75774629 50.04776978 179.42384893 49.88928223 156.57940674 C49.87012727 153.28761986 49.86616324 149.99588788 49.86243153 146.70405293 C49.8441232 131.9459979 49.749736 117.19415686 49.18359375 102.4453125 C49.14691589 101.47673813 49.11023804 100.50816376 49.07244873 99.51023865 C48.6733021 82.67511395 48.6733021 82.67511395 41.38671875 68.12109375 C31.28644588 59.90202469 15.32600861 58.90607752 2.88256836 57.03344727 C-21.22899436 53.39112258 -44.5700377 47.45307037 -67.375 38.6875 C-68.52871094 38.24664062 -69.68242188 37.80578125 -70.87109375 37.3515625 C-77.66666709 34.63333316 -84.0267585 31.31933095 -90.375 27.6875 C-91.11492187 27.26855469 -91.85484375 26.84960938 -92.6171875 26.41796875 C-94.20696688 25.51453991 -95.79172549 24.60228083 -97.375 23.6875 C-97.375 23.0275 -97.375 22.3675 -97.375 21.6875 C-96.53839844 21.73390625 -95.70179687 21.7803125 -94.83984375 21.828125 C-86.68518057 22.08098277 -80.27908965 21.07139614 -72.43359375 18.77734375 C-55.4122979 13.97862979 -39.18202402 13.0431621 -22.375 18.6875 C-21.91444214 17.89315552 -21.91444214 17.89315552 -21.44458008 17.08276367 C-20.03787297 14.67273757 -18.61297451 12.2739693 -17.1875 9.875 C-16.46336914 8.62493164 -16.46336914 8.62493164 -15.72460938 7.34960938 C-11.37613987 0.08270396 -8.61880069 -3.97411519 0 0 Z " fill="#FCC6CF" transform="translate(195.375,155.3125)"/>
<path d="M0 0 C0.66 0.33 1.32 0.66 2 1 C-1.3 2.65 -4.6 4.3 -8 6 C-8.58621464 10.48590058 -8.58621464 10.48590058 -6.9453125 14.56640625 C-5.92566829 15.66596851 -4.89602412 16.7562986 -3.859375 17.83984375 C-1.49068541 20.59170372 0.37378317 23.59174224 2.25 26.6875 C2.91515625 27.78449219 3.5803125 28.88148438 4.265625 30.01171875 C4.83796875 30.99785156 5.4103125 31.98398437 6 33 C6.38929688 33.61488281 6.77859375 34.22976563 7.1796875 34.86328125 C10.57968909 43.71947587 9.79404489 55.72805728 6.28125 64.33203125 C5.8584375 65.21246094 5.435625 66.09289062 5 67 C4.5978125 67.87011719 4.195625 68.74023438 3.78125 69.63671875 C-0.68287182 78.11076394 -8.58768172 85.6980378 -17.88671875 88.5859375 C-21.42903553 89.27999587 -24.98181425 89.57579154 -28.58203125 89.7890625 C-31.14128569 89.91788208 -31.14128569 89.91788208 -34 91 C-40.02490284 91.59067675 -44.07205346 90.31648723 -49 87 C-55.40176046 81.03472321 -57.9063119 73.61750261 -58.3515625 64.96875 C-58.39523232 63.12529466 -58.42373335 61.28142113 -58.4375 59.4375 C-58.4475708 58.56343506 -58.4576416 57.68937012 -58.46801758 56.78881836 C-58.28265997 42.76079683 -52.11689128 30.45181047 -43 20 C-35.35427746 13.30863715 -28.65829057 9.61117902 -18.4140625 9.796875 C-15.39352248 10.05103047 -12.78767493 10.82624213 -10 12 C-10 9.69 -10 7.38 -10 5 C-8.38007835 4.13624104 -6.75388139 3.28424146 -5.125 2.4375 C-4.22007812 1.96183594 -3.31515625 1.48617187 -2.3828125 0.99609375 C-1.59648437 0.66738281 -0.81015625 0.33867187 0 0 Z " fill="#E5E9F4" transform="translate(418,247)"/>
<path d="M0 0 C4.14577275 -0.05863894 8.29143705 -0.09380984 12.4375 -0.125 C14.18450195 -0.15013672 14.18450195 -0.15013672 15.96679688 -0.17578125 C24.49076789 -0.22380362 32.14398843 0.29962057 39.875 4.125 C40.81988281 4.5684375 41.76476562 5.011875 42.73828125 5.46875 C43.81464844 5.9740625 44.89101562 6.479375 46 7 C59.21858933 13.14450853 72.84346217 17.70180196 86.73071289 22.05517578 C97.6084932 25.47279596 108.37804921 29.07057414 118.625 34.125 C122.57704451 36.00151034 126.23680727 37.41114773 130.5 38.375 C140.46609972 40.86652493 150.49528899 47.18929876 156 56 C163.04076083 70.014679 162.31346336 86.34353654 162.30078125 101.61328125 C162.30468225 103.59604479 162.30901972 105.57880752 162.31376648 107.56156921 C162.32118788 111.70424106 162.32096947 115.84682765 162.31567383 119.98950195 C162.31105787 124.18524946 162.31790557 128.38070613 162.33618164 132.57641602 C162.50864876 172.58998901 162.50864876 172.58998901 160.73046875 187.79296875 C160.62237381 188.72264969 160.51427887 189.65233063 160.40290833 190.61018372 C159.40527982 197.6390412 157.75723811 206.30284807 152 211 C147.90226615 212.44179524 144.34487371 213.26332568 140 213 C140.62422852 211.99122803 141.24845703 210.98245605 141.89160156 209.94311523 C145.01903337 203.63577157 145.20931628 196.82684953 145.734375 189.91015625 C145.79492821 189.17483232 145.85548141 188.4395084 145.91786957 187.68190193 C147.35326815 170.09574186 147.38661131 152.524456 147.26428223 134.89190674 C147.24512727 131.60011986 147.24116324 128.30838788 147.23743153 125.01655293 C147.2191232 110.2584979 147.124736 95.50665686 146.55859375 80.7578125 C146.52191589 79.78923813 146.48523804 78.82066376 146.44744873 77.82273865 C146.0483021 60.98761395 146.0483021 60.98761395 138.76171875 46.43359375 C128.66144588 38.21452469 112.70100861 37.21857752 100.25756836 35.34594727 C76.14600564 31.70362258 52.8049623 25.76557037 30 17 C28.84628906 16.55914062 27.69257812 16.11828125 26.50390625 15.6640625 C19.70833291 12.94583316 13.3482415 9.63183095 7 6 C6.26007813 5.58105469 5.52015625 5.16210938 4.7578125 4.73046875 C3.16803312 3.82703991 1.58327451 2.91478083 0 2 C0 1.34 0 0.68 0 0 Z " fill="#282E45" transform="translate(98,177)"/>
<path d="M0 0 C9.59920345 2.18600281 19.20450119 4.21432028 28.88964844 5.98168945 C29.68918945 6.12823975 30.48873047 6.27479004 31.3125 6.42578125 C32.35083984 6.6120105 32.35083984 6.6120105 33.41015625 6.80200195 C35.25 7.1875 35.25 7.1875 38.25 8.1875 C37.755 3.7325 37.755 3.7325 37.25 -0.8125 C39.25 1.1875 39.25 1.1875 39.5625 5 C39.94768587 7.23139722 39.94768587 7.23139722 41.25 9.1875 C44.35010631 10.8442186 47.47694692 11.88848113 50.80859375 13.00390625 C63.12398011 17.23950451 74.71241446 27.45482608 80.4921875 39.20703125 C81.4997545 41.84020893 82.03403312 44.37993054 82.25 47.1875 C77.76963974 51.54651717 73.14666699 52.59004813 67.25 54 C66.26410889 54.24572754 65.27821777 54.49145508 64.26245117 54.74462891 C62.1040575 55.27976232 59.94405527 55.80843824 57.78271484 56.33154297 C54.65917627 57.08835888 51.53911954 57.85806574 48.42019653 58.63365173 C45.78303773 59.28851274 43.14456016 59.93791846 40.50561523 60.58554077 C38.58608775 61.05671012 36.6670638 61.52992932 34.74804688 62.00317383 C32.97977539 62.4308606 32.97977539 62.4308606 31.17578125 62.8671875 C30.12817627 63.12226074 29.08057129 63.37733398 28.0012207 63.64013672 C25.25 64.1875 25.25 64.1875 21.25 64.1875 C21.10304688 62.65996094 21.10304688 62.65996094 20.953125 61.1015625 C20.12392867 53.04596341 18.99454914 45.11235437 17.3125 37.1875 C17.15491211 36.40455566 16.99732422 35.62161133 16.83496094 34.81494141 C16.33076503 32.39414048 16.33076503 32.39414048 15.25 29.1875 C14.26 28.8575 13.27 28.5275 12.25 28.1875 C12.25 27.5275 12.25 26.8675 12.25 26.1875 C11.59 26.1875 10.93 26.1875 10.25 26.1875 C9.57195312 25.47078125 8.89390625 24.7540625 8.1953125 24.015625 C4.72589268 20.40620658 0.50081506 18.28344258 -3.875 15.9375 C-4.68582031 15.49148437 -5.49664062 15.04546875 -6.33203125 14.5859375 C-9.46039214 12.87955883 -12.36172627 11.31692458 -15.75 10.1875 C-15.75 9.5275 -15.75 8.8675 -15.75 8.1875 C-16.471875 8.084375 -17.19375 7.98125 -17.9375 7.875 C-21.10761946 7.10008191 -23.19663103 6.23019518 -25.75 4.1875 C-26.3125 1.6875 -26.3125 1.6875 -25.75 -0.8125 C-20.78751953 -7.28530062 -6.69095702 -1.55196214 0 0 Z " fill="#FCF5F0" transform="translate(243.75,202.8125)"/>
<path d="M0 0 C4.80976968 2.14256759 9.60980461 4.06296614 14.6171875 5.703125 C15.65053223 6.04303467 16.68387695 6.38294434 17.74853516 6.7331543 C19.809284 7.40338848 21.8740483 8.06141749 23.94287109 8.70629883 C31.04492849 11.05422049 31.04492849 11.05422049 33.796875 14.05859375 C34.79471449 17.22626345 35.07752641 19.38320337 34.625 22.6875 C33.0859375 25.3984375 33.0859375 25.3984375 31 28.0625 C30.27554688 29.00480469 29.55109375 29.94710937 28.8046875 30.91796875 C27.72574219 32.28888672 27.72574219 32.28888672 26.625 33.6875 C25.4546056 35.24720969 24.28742481 36.8093417 23.125 38.375 C22.29251859 39.47980911 21.45954883 40.58425174 20.625 41.6875 C23.265 42.0175 25.905 42.3475 28.625 42.6875 C27.8 43.244375 26.975 43.80125 26.125 44.375 C23.3504586 46.43677133 23.3504586 46.43677133 23.3125 49.4375 C23.415625 50.18 23.51875 50.9225 23.625 51.6875 C28.08 53.6675 28.08 53.6675 32.625 55.6875 C32.625 56.3475 32.625 57.0075 32.625 57.6875 C33.285 57.76355469 33.945 57.83960938 34.625 57.91796875 C38.69915642 58.96303231 41.9984767 60.90906175 45.625 63 C46.32367188 63.39123047 47.02234375 63.78246094 47.7421875 64.18554688 C51.63312938 66.39897891 55.30680881 68.64798502 58.625 71.6875 C58.625 72.3475 58.625 73.0075 58.625 73.6875 C59.285 73.6875 59.945 73.6875 60.625 73.6875 C65.4751339 78.0682661 66.67322827 84.44316588 67.625 90.6875 C66.625 93.6875 66.625 93.6875 65.625 95.6875 C65.585008 97.68710012 65.58153201 99.68797242 65.625 101.6875 C64.965 101.3575 64.305 101.0275 63.625 100.6875 C63.10756679 98.20202602 62.68863518 95.75700311 62.3125 93.25 C60.73664516 84.03431903 58.35588251 75.94310733 50.62109375 70.0546875 C49.96238281 69.60351562 49.30367188 69.15234375 48.625 68.6875 C47.89410156 68.17445313 47.16320312 67.66140625 46.41015625 67.1328125 C40.9437466 63.57122955 35.66764937 61.6924891 29.41796875 59.94140625 C24.78038507 58.40828127 20.47659711 56.38984724 16.0625 54.3125 C8.68685779 50.88095121 1.38841595 48.21367685 -6.43164062 45.9987793 C-13.68285335 43.93698019 -20.81101934 41.58247693 -27.9375 39.125 C-29.54262451 38.57875977 -29.54262451 38.57875977 -31.18017578 38.02148438 C-38.10891312 35.61805501 -44.75095299 32.83022832 -51.375 29.6875 C-60.31894917 25.46869805 -68.47226686 22.64158392 -78.375 21.6875 C-75.41711351 18.72961351 -71.78108698 18.46469298 -67.8125 17.625 C-67.03841797 17.45162109 -66.26433594 17.27824219 -65.46679688 17.09960938 C-50.40416159 13.82621403 -37.01967094 13.76934964 -22.375 18.6875 C-21.91444214 17.89315552 -21.91444214 17.89315552 -21.44458008 17.08276367 C-20.03787297 14.67273757 -18.61297451 12.2739693 -17.1875 9.875 C-16.70474609 9.04162109 -16.22199219 8.20824219 -15.72460938 7.34960938 C-11.37613987 0.08270396 -8.61880069 -3.97411519 0 0 Z " fill="#F6C7D3" transform="translate(195.375,155.3125)"/>
<path d="M0 0 C5.08246185 0.09531069 10.16454228 0.2017311 15.24658203 0.31738281 C16.96657354 0.35508651 18.68662838 0.39002726 20.40673828 0.421875 C49.92368645 0.97456215 49.92368645 0.97456215 59 4 C59.33 3.34 59.66 2.68 60 2 C60.28101563 2.98613281 60.56203125 3.97226563 60.8515625 4.98828125 C61.6065528 7.6347279 62.37413582 10.27711691 63.1484375 12.91796875 C66.40283148 24.17192413 68.84889077 35.48735954 71 47 C70.46632813 47.3196875 69.93265625 47.639375 69.3828125 47.96875 C61.11771901 53.57414212 56.87397559 61.52396312 52 70 C49.3200346 65.9800519 48.62818531 61.71329653 47.58789062 57.06835938 C45.7359908 49.18118441 42.12212231 43.19867456 37 37 C36.39671875 36.26394531 35.7934375 35.52789062 35.171875 34.76953125 C28.4888765 27.35956535 19.45703895 22.52302348 10.03369141 19.3347168 C6.51167882 18.0985774 5.19651329 17.38647613 3.4765625 14.00390625 C3.19554687 12.86824219 2.91453125 11.73257813 2.625 10.5625 C2.18027344 8.86287109 2.18027344 8.86287109 1.7265625 7.12890625 C1.48679687 6.09636719 1.24703125 5.06382812 1 4 C0.66865625 2.66617085 0.33575116 1.33272655 0 0 Z " fill="#111629" transform="translate(279,195)"/>
<path d="M0 0 C4.80976968 2.14256759 9.60980461 4.06296614 14.6171875 5.703125 C15.65053223 6.04303467 16.68387695 6.38294434 17.74853516 6.7331543 C19.809284 7.40338848 21.8740483 8.06141749 23.94287109 8.70629883 C31.04492849 11.05422049 31.04492849 11.05422049 33.796875 14.05859375 C34.79503907 17.22729385 35.0771186 19.3819159 34.625 22.6875 C33.0859375 25.43359375 33.0859375 25.43359375 31 28.125 C29.99066406 29.45337891 29.99066406 29.45337891 28.9609375 30.80859375 C26.24424141 34.15676267 23.4501812 37.43074351 20.625 40.6875 C10.24102607 37.84385282 -0.11557724 34.95842992 -10.375 31.6875 C-12.05529297 31.15962891 -12.05529297 31.15962891 -13.76953125 30.62109375 C-15.39955078 30.09708984 -15.39955078 30.09708984 -17.0625 29.5625 C-18.03574219 29.25054687 -19.00898438 28.93859375 -20.01171875 28.6171875 C-22.375 27.6875 -22.375 27.6875 -24.375 25.6875 C-22.97350803 19.55699711 -20.35171552 14.76664069 -17.0625 9.4375 C-16.58876953 8.63570312 -16.11503906 7.83390625 -15.62695312 7.0078125 C-11.2779504 -0.1076557 -8.42372724 -3.88416714 0 0 Z " fill="#E5E9F5" transform="translate(195.375,155.3125)"/>
<path d="M0 0 C2.26921536 -0.13489391 4.5407067 -0.23193995 6.8125 -0.3125 C8.07707031 -0.37050781 9.34164063 -0.42851562 10.64453125 -0.48828125 C14 0 14 0 15.84375 2.26953125 C16.2253125 3.17058594 16.606875 4.07164062 17 5 C17.31324219 5.66 17.62648438 6.32 17.94921875 7 C20.76196036 14.61970214 21.75181742 23.67847148 18.5 31.3125 C18.005 32.199375 17.51 33.08625 17 34 C16.34 34 15.68 34 15 34 C14.814375 34.66 14.62875 35.32 14.4375 36 C11.32176581 42.50240178 6.22364627 47.46383735 0 51 C-3.01490557 52.00496852 -5.04181692 52.10335303 -8.1875 52.0625 C-9.08855469 52.05347656 -9.98960937 52.04445313 -10.91796875 52.03515625 C-11.60503906 52.02355469 -12.29210937 52.01195312 -13 52 C-13.66 50.68 -14.32 49.36 -15 48 C-15.66 48 -16.32 48 -17 48 C-18.83823415 43.31687966 -19.31602738 39.10535077 -19.25 34.125 C-19.24613281 33.42117188 -19.24226563 32.71734375 -19.23828125 31.9921875 C-19.15528431 27.01237084 -18.56964191 22.70892573 -17 18 C-16.34 18 -15.68 18 -15 18 C-14.9175 17.278125 -14.835 16.55625 -14.75 15.8125 C-13.03383509 9.37688158 -7.43153519 5.42116177 -2 2 C-1.34 2 -0.68 2 0 2 C0 1.34 0 0.68 0 0 Z " fill="#FDC8D1" transform="translate(402,278)"/>
<path d="M0 0 C0 2.31 0 4.62 0 7 C9.04066419 11.08982428 18.44171962 14.35440454 28 17 C28 17.66 28 18.32 28 19 C20.60908871 19.56853164 14.896394 17.50163312 8 15 C5.75205194 14.24387202 3.50211561 13.49362308 1.25 12.75 C-0.5 12.16666667 -2.25 11.58333333 -4 11 C-4 11.66 -4 12.32 -4 13 C-2.35 13 -0.7 13 1 13 C1.495 15.97 1.495 15.97 2 19 C0.453125 18.4740625 0.453125 18.4740625 -1.125 17.9375 C-4.82421335 16.75409533 -4.82421335 16.75409533 -7.87890625 17.578125 C-11.63112081 18.08530794 -13.39533164 17.37241219 -16.8125 15.8125 C-17.85792969 15.34585938 -18.90335938 14.87921875 -19.98046875 14.3984375 C-20.97691406 13.93695313 -21.97335938 13.47546875 -23 13 C-25.26593922 11.98561819 -27.5345266 10.97754826 -29.8046875 9.97265625 C-31.31467024 9.30364254 -32.81966228 8.62328653 -34.3203125 7.93359375 C-41.06274216 4.99597568 -47.71949953 3.86726965 -55 3 C-52.04211351 0.04211351 -48.40608698 -0.22280702 -44.4375 -1.0625 C-43.66341797 -1.23587891 -42.88933594 -1.40925781 -42.09179688 -1.58789062 C-27.44942194 -4.76995545 -14.24994585 -5.22420274 0 0 Z " fill="#F9C5CE" transform="translate(172,174)"/>
<path d="M0 0 C0.99 0 1.98 0 3 0 C4.6875 1.5 4.6875 1.5 6 3 C6 1.68 6 0.36 6 -1 C6.66 -1 7.32 -1 8 -1 C8 10.88 8 22.76 8 35 C6.515 35.495 6.515 35.495 5 36 C4.34 35.01 3.68 34.02 3 33 C2.01 33 1.02 33 0 33 C-0.66 33.66 -1.32 34.32 -2 35 C-2.66 35 -3.32 35 -4 35 C-4.845625 35.020625 -5.69125 35.04125 -6.5625 35.0625 C-9 35 -9 35 -10 34 C-10.15418569 31.07047195 -10.23173953 28.18080575 -10.25 25.25 C-10.270625 24.43789063 -10.29125 23.62578125 -10.3125 22.7890625 C-10.34371052 17.99824786 -10.04296098 14.93983369 -7 11 C-7.99 10.34 -8.98 9.68 -10 9 C-10.5 5.5625 -10.5 5.5625 -10 2 C-6.54872991 -1.15544694 -4.3661858 -1.26389589 0 0 Z " fill="#D7ADB8" transform="translate(278,291)"/>
<path d="M0 0 C0.99 0 1.98 0 3 0 C3 19.47 3 38.94 3 59 C2.34 59 1.68 59 1 59 C0.99742187 57.97261719 0.99484375 56.94523437 0.9921875 55.88671875 C0.79830492 46.46402541 -0.52589191 39.92465536 -6 32 C-6.60972656 31.07960938 -7.21945312 30.15921875 -7.84765625 29.2109375 C-10.93530425 24.54833106 -10.93530425 24.54833106 -14.6953125 20.44921875 C-16 19 -16 19 -16.1875 15.3125 C-16.125625 14.219375 -16.06375 13.12625 -16 12 C-15.34773438 11.72027344 -14.69546875 11.44054687 -14.0234375 11.15234375 C-8.51550761 8.62584494 -4.79762485 6.31667479 -1.25390625 1.35546875 C-0.84011719 0.90816406 -0.42632812 0.46085938 0 0 Z " fill="#2E344A" transform="translate(425,241)"/>
<path d="M0 0 C9.04553687 3.01517896 16.65741631 6.00605413 24 12 C24.69140625 14.15625 24.69140625 14.15625 25 16 C24.34 16 23.68 16 23 16 C22.67 16.99 22.34 17.98 22 19 C19.9609375 20.53515625 19.9609375 20.53515625 17.375 22.0625 C16.53710938 22.56910156 15.69921875 23.07570312 14.8359375 23.59765625 C12 25 12 25 5 27 C3.35 18.09 1.7 9.18 0 0 Z " fill="#121629" transform="translate(402,225)"/>
<path d="M0 0 C7.1581611 1.30884317 13.20726637 3.65217909 19.71801758 6.85668945 C26.16103511 10.00040611 32.29695709 12.5664168 39.28955078 14.22729492 C42.84727457 15.24092609 45.61965627 16.92246772 48.71801758 18.91918945 C47.39801758 20.23918945 46.07801758 21.55918945 44.71801758 22.91918945 C44.15985352 22.30172852 43.60168945 21.68426758 43.02661133 21.0480957 C31.42025462 10.34511025 6.55445075 10.18931114 -8.28198242 7.91918945 C-7.29198242 7.25918945 -6.30198242 6.59918945 -5.28198242 5.91918945 C-5.61198242 5.25918945 -5.94198242 4.59918945 -6.28198242 3.91918945 C-4.57624807 1.15752432 -3.33949643 -0.11825969 0 0 Z " fill="#2A3044" transform="translate(192.281982421875,202.080810546875)"/>
<path d="M0 0 C3.0625 -0.25 3.0625 -0.25 6 0 C8.15904819 2.15904819 7.23159535 6.88884545 7.25 9.875 C7.270625 10.70386719 7.29125 11.53273438 7.3125 12.38671875 C7.31765625 13.18464844 7.3228125 13.98257812 7.328125 14.8046875 C7.34214355 15.90272705 7.34214355 15.90272705 7.35644531 17.02294922 C6.89756262 19.56817665 6.03502195 20.44803882 4 22 C1.375 22.25 1.375 22.25 -1 22 C-3.15011953 19.84988047 -2.18520645 15.10202202 -2.1875 12.125 C-2.19974609 11.29613281 -2.21199219 10.46726562 -2.22460938 9.61328125 C-2.22654297 8.81535156 -2.22847656 8.01742188 -2.23046875 7.1953125 C-2.23457764 6.46328613 -2.23868652 5.73125977 -2.24291992 4.97705078 C-2 3 -2 3 0 0 Z " fill="#3C3446" transform="translate(270,304)"/>
<path d="M0 0 C0.33 0 0.66 0 1 0 C2.09796016 19.01439244 2.12271332 37.99128605 2.06866455 57.02862549 C2.05824766 61.09915635 2.0538285 65.1696939 2.04882812 69.24023438 C2.03825348 77.16017396 2.02129465 85.080082 2 93 C1.34 93 0.68 93 0 93 C0 95.64 0 98.28 0 101 C-0.33 101 -0.66 101 -1 101 C-0.67 67.67 -0.34 34.34 0 0 Z " fill="#F2E1E1" transform="translate(260,261)"/>
<path d="M0 0 C7.43045975 0.18832962 13.68786526 2.09763984 20.60546875 4.74609375 C24.04721268 6.0174399 27.46309798 7.03375612 31 8 C31 8.66 31 9.32 31 10 C23.60908871 10.56853164 17.896394 8.50163312 11 6 C8.75205194 5.24387202 6.50211561 4.49362308 4.25 3.75 C2.5 3.16666667 0.75 2.58333333 -1 2 C-0.67 1.34 -0.34 0.68 0 0 Z " fill="#2D2C3E" transform="translate(169,183)"/>
<path d="M0 0 C1.32 0 2.64 0 4 0 C3.34 1.65 2.68 3.3 2 5 C2.66 4.67 3.32 4.34 4 4 C4.33 3.01 4.66 2.02 5 1 C6.65 0.67 8.3 0.34 10 0 C10 3 10 3 8.6875 4.38671875 C7.125 5.59114583 5.5625 6.79557292 4 8 C4.99 8.99 5.98 9.98 7 11 C5.02 11.66 3.04 12.32 1 13 C0.75765625 12.44570312 0.5153125 11.89140625 0.265625 11.3203125 C-0.06953125 10.59585938 -0.4046875 9.87140625 -0.75 9.125 C-1.07484375 8.40570313 -1.3996875 7.68640625 -1.734375 6.9453125 C-3.21929686 4.6629326 -4.50415408 3.99624102 -7 3 C-6.67 2.01 -6.34 1.02 -6 0 C-3.45840813 -1.27079593 -2.68301208 -0.71020908 0 0 Z " fill="#20273A" transform="translate(230,163)"/>
<path d="M0 0 C2 0.3125 2 0.3125 4 1 C5.59412284 4.18824568 5.10174735 7.62896662 5.0625 11.125 C5.05798828 11.87910156 5.05347656 12.63320313 5.04882812 13.41015625 C5.03703499 15.27347127 5.01909942 17.13674555 5 19 C4.01 19.33 3.02 19.66 2 20 C-0.46662244 16.30006635 -0.47969937 13.17458392 -0.6875 8.875 C-0.73455078 8.13378906 -0.78160156 7.39257812 -0.83007812 6.62890625 C-0.93458359 4.75466073 -0.97270642 2.87695837 -1 1 C-0.67 0.67 -0.34 0.34 0 0 Z " fill="#212945" transform="translate(270,304)"/>
<path d="M0 0 C0.66 0.33 1.32 0.66 2 1 C2 2.65 2 4.3 2 6 C2.99 6.33 3.98 6.66 5 7 C5.57557225 29.19150795 5.57557225 29.19150795 -1 37 C-1.66 37 -2.32 37 -3 37 C-3.33 37.99 -3.66 38.98 -4 40 C-4.33 39.34 -4.66 38.68 -5 38 C-3.6875 35.375 -3.6875 35.375 -2 33 C-1.34 33 -0.68 33 0 33 C3.27849126 24.18905475 3.13403107 14.59109326 -0.1484375 5.8046875 C-1.07195368 3.7332658 -1.07195368 3.7332658 -3 1 C-2.01 0.67 -1.02 0.34 0 0 Z " fill="#EEDBE8" transform="translate(419,279)"/>
<path d="M0 0 C-0.61875 0.28875 -1.2375 0.5775 -1.875 0.875 C-4.13325765 1.93720042 -4.13325765 1.93720042 -6 4 C-8.32176742 5.27322729 -10.47587248 6.15862416 -13 7 C-13 7.66 -13 8.32 -13 9 C-14.75 10.6875 -14.75 10.6875 -17 12 C-19.25 11.6875 -19.25 11.6875 -21 11 C-21 11.66 -21 12.32 -21 13 C-21.7425 13.268125 -22.485 13.53625 -23.25 13.8125 C-25.86636554 14.94229421 -27.80187111 16.20893202 -30 18 C-30.66 17.67 -31.32 17.34 -32 17 C-25.89482249 11.38135334 -19.35972572 7.31731687 -12.0625 3.4375 C-11.22162842 2.98391113 -10.38075684 2.53032227 -9.5144043 2.06298828 C-8.71687744 1.64903809 -7.91935059 1.23508789 -7.09765625 0.80859375 C-6.38101807 0.43532959 -5.66437988 0.06206543 -4.92602539 -0.32250977 C-3 -1 -3 -1 0 0 Z " fill="#1F2436" transform="translate(243,116)"/>
<path d="M0 0 C1.43793392 0.31049726 2.8753318 0.6234776 4.3125 0.9375 C5.11300781 1.11152344 5.91351563 1.28554687 6.73828125 1.46484375 C9 2 9 2 12 3 C11.67 3.763125 11.34 4.52625 11 5.3125 C9.82563314 7.99069135 9.82563314 7.99069135 10 11 C7.36 11 4.72 11 2 11 C2.66 10.01 3.32 9.02 4 8 C3.01 7.01 2.02 6.02 1 5 C1.33 4.01 1.66 3.02 2 2 C1.34 2 0.68 2 0 2 C0 1.34 0 0.68 0 0 Z " fill="#212A3F" transform="translate(178,198)"/>
<path d="M0 0 C1.0725 0.165 2.145 0.33 3.25 0.5 C7.03028752 1.08810915 7.03028752 1.08810915 11 1 C18.76677014 3.22896612 25.36532215 7.50960967 32 12 C31.34 12.66 30.68 13.32 30 14 C29.28457031 13.54109375 28.56914062 13.0821875 27.83203125 12.609375 C21.35287973 8.61962581 15.25091405 5.83451302 7.91015625 3.82421875 C5.17696128 3.05011924 2.61524432 2.10292993 0 1 C0 0.67 0 0.34 0 0 Z " fill="#DDC4D4" transform="translate(216,211)"/>
<path d="M0 0 C0 2.97 0 5.94 0 9 C-4 11 -4 11 -6.25 10.625 C-6.8275 10.41875 -7.405 10.2125 -8 10 C-8.3125 6.6875 -8.3125 6.6875 -8 3 C-5.15739513 0.61835808 -3.71594733 0 0 0 Z " fill="#2A273C" transform="translate(276,290)"/>
<path d="M0 0 C0.33 0 0.66 0 1 0 C1 10.56 1 21.12 1 32 C1.66 32 2.32 32 3 32 C3 35.63 3 39.26 3 43 C1.02 43.495 1.02 43.495 -1 44 C-0.67 29.48 -0.34 14.96 0 0 Z " fill="#28253B" transform="translate(331,272)"/>
<path d="M0 0 C0.66 0 1.32 0 2 0 C1.68951584 3.33352425 1.37624092 6.66678081 1.0625 10 C0.97548828 10.93457031 0.88847656 11.86914062 0.79882812 12.83203125 C-1.01323411 32.02646821 -1.01323411 32.02646821 -3 36 C-5.63758632 32.04362052 -4.89182373 30.60775592 -4 26 C-3.66697414 24.6249255 -3.33362268 23.24992982 -3 21.875 C-1.84968887 16.92440174 -1.54257615 11.98237217 -1.24609375 6.91796875 C-1.04035173 4.47845624 -0.68568181 2.34038502 0 0 Z " fill="#40394B" transform="translate(330,316)"/>
<path d="M0 0 C0.66 0 1.32 0 2 0 C1.67 1.65 1.34 3.3 1 5 C0.34 5 -0.32 5 -1 5 C-1.8967732 10.38063921 -2.11002848 15.6753671 -2.125 21.125 C-2.12951172 21.805625 -2.13402344 22.48625 -2.13867188 23.1875 C-2.12688031 27.22807566 -1.77794393 31.03619043 -1 35 C-5.87293188 27.69060218 -5.74698939 20.5947721 -5 12 C-4.02050678 8.445459 -2.70921451 5.26054978 -1 2 C-0.67 1.34 -0.34 0.68 0 0 Z " fill="#FCEFF2" transform="translate(386,291)"/>
<path d="M0 0 C0 2.31 0 4.62 0 7 C-2.31 7.66 -4.62 8.32 -7 9 C-8 8 -8 8 -8.0625 4.9375 C-8.041875 3.968125 -8.02125 2.99875 -8 2 C-4.91190305 0.23537317 -3.76687864 0 0 0 Z " fill="#202232" transform="translate(276,329)"/>
<path d="M0 0 C-1.32 1.32 -2.64 2.64 -4 4 C-4.5465625 3.38382813 -5.093125 2.76765625 -5.65625 2.1328125 C-8.23302717 -0.21205472 -10.20997714 -1.0494156 -13.5 -2.125 C-16.81256324 -3.22615426 -19.91642727 -4.35639755 -23 -6 C-15.42504867 -8.65756049 -6.30175916 -4.15343217 0 0 Z " fill="#52515E" transform="translate(241,221)"/>
<path d="M0 0 C3.63 0.66 7.26 1.32 11 2 C11.33 3.65 11.66 5.3 12 7 C3.42857143 6.14285714 3.42857143 6.14285714 0 4 C0 2.68 0 1.36 0 0 Z " fill="#272E40" transform="translate(143,213)"/>
<path d="M0 0 C3.63 0.66 7.26 1.32 11 2 C11 3.65 11 5.3 11 7 C6.94393835 6.53199289 3.53411321 6.12046792 0 4 C0 2.68 0 1.36 0 0 Z " fill="#232A3D" transform="translate(127,208)"/>
<path d="M0 0 C-1.98 0.99 -1.98 0.99 -4 2 C-4 2.99 -4 3.98 -4 5 C-4 5.99 -4 6.98 -4 8 C-5.65 8.66 -7.3 9.32 -9 10 C-10.4606285 7.35261084 -11 6.10551666 -11 3 C-10.34 3 -9.68 3 -9 3 C-8.67 2.01 -8.34 1.02 -8 0 C-5.13822943 -1.43088528 -3.06624227 -0.59991697 0 0 Z " fill="#242A41" transform="translate(156,190)"/>
<path d="M0 0 C-1 3 -1 3 -4 5 C-4.99 6.485 -4.99 6.485 -6 8 C-6.99 8 -7.98 8 -9 8 C-9.99 9.485 -9.99 9.485 -11 11 C-13.125 12.1875 -13.125 12.1875 -15 13 C-11.53812245 6.80506123 -7.7058386 0 0 0 Z " fill="#F1F3F7" transform="translate(388,260)"/>
<path d="M0 0 C2.475 0.99 2.475 0.99 5 2 C5 2.66 5 3.32 5 4 C5.88751953 4.27263672 5.88751953 4.27263672 6.79296875 4.55078125 C11.212508 5.95667057 15.12540125 7.37527181 19 10 C18.67 10.66 18.34 11.32 18 12 C14.98933982 10.68980529 11.99348817 9.34891751 9 8 C8.2265625 7.66484375 7.453125 7.3296875 6.65625 6.984375 C5.9446875 6.65953125 5.233125 6.3346875 4.5 6 C3.8503125 5.71125 3.200625 5.4225 2.53125 5.125 C1 4 1 4 0.28125 1.875 C0.1884375 1.25625 0.095625 0.6375 0 0 Z " fill="#323949" transform="translate(106,180)"/>
<path d="M0 0 C0.33 0 0.66 0 1 0 C1.04898437 1.03640625 1.09796875 2.0728125 1.1484375 3.140625 C1.22349597 4.51044208 1.29904247 5.88023248 1.375 7.25 C1.42140625 8.27287109 1.42140625 8.27287109 1.46875 9.31640625 C1.68259374 12.98739038 2.01077055 15.86251616 4 19 C2.35 19 0.7 19 -1 19 C-1.02683987 16.02077407 -1.04676037 13.04178705 -1.0625 10.0625 C-1.07087891 9.21236328 -1.07925781 8.36222656 -1.08789062 7.48632812 C-1.09111328 6.67744141 -1.09433594 5.86855469 -1.09765625 5.03515625 C-1.10289307 4.2862915 -1.10812988 3.53742676 -1.11352539 2.76586914 C-1 1 -1 1 0 0 Z " fill="#3F3F50" transform="translate(269,306)"/>
<path d="M0 0 C5.65611463 -0.56561146 9.22642128 1.28608722 14 4 C14 4.33 14 4.66 14 5 C11.87436897 4.88623383 9.7494739 4.75864369 7.625 4.625 C6.44164062 4.55539063 5.25828125 4.48578125 4.0390625 4.4140625 C1 4 1 4 -1 2 C-0.67 1.34 -0.34 0.68 0 0 Z " fill="#232B42" transform="translate(208,210)"/>
<path d="M0 0 C0 1.32 0 2.64 0 4 C-8.415 4.495 -8.415 4.495 -17 5 C-16.67 4.01 -16.34 3.02 -16 2 C-15.31292969 1.93941406 -14.62585938 1.87882812 -13.91796875 1.81640625 C-13.01691406 1.73261719 -12.11585938 1.64882813 -11.1875 1.5625 C-9.84751953 1.44068359 -9.84751953 1.44068359 -8.48046875 1.31640625 C-5.46938034 0.93231466 -3.07101687 0 0 0 Z " fill="#C8B1C0" transform="translate(253,387)"/>
<path d="M0 0 C-0.99 0.495 -0.99 0.495 -2 1 C-2.65555119 3.52733235 -2.65555119 3.52733235 -3 6 C-5.97 5.67 -8.94 5.34 -12 5 C-11.34 3.68 -10.68 2.36 -10 1 C-6.67000827 -0.07999732 -3.48044019 -0.09944115 0 0 Z " fill="#F8C7D3" transform="translate(137,172)"/>
<path d="M0 0 C0 0.66 0 1.32 0 2 C-5.94 1.01 -11.88 0.02 -18 -1 C-12.67212201 -6.32787799 -6.18151299 -2.06050433 0 0 Z " fill="#E6C3D1" transform="translate(135,178)"/>
<path d="M0 0 C0.680625 0.804375 1.36125 1.60875 2.0625 2.4375 C5.48477302 5.42288711 7.5428126 5.73781251 12 6 C12.33 7.32 12.66 8.64 13 10 C4.06443719 8.46818923 4.06443719 8.46818923 1.1875 4.5 C0 2 0 2 0 0 Z " fill="#1E2438" transform="translate(248,184)"/>
<path d="M0 0 C0 0.66 0 1.32 0 2 C-2.66238608 3.93628079 -5.236821 5.66080934 -8.25 7 C-10.50014092 8.28579481 -10.95290609 9.68143492 -12 12 C-12.99 12.495 -12.99 12.495 -14 13 C-13.67 11.68 -13.34 10.36 -13 9 C-12.34 9 -11.68 9 -11 9 C-10.773125 8.4225 -10.54625 7.845 -10.3125 7.25 C-8.18037706 3.59493211 -4.43087901 0 0 0 Z " fill="#FDECF3" transform="translate(402,278)"/>
<path d="M0 0 C0.66 0 1.32 0 2 0 C2.02578125 1.25296875 2.0515625 2.5059375 2.078125 3.796875 C2.13441169 5.44795123 2.1917589 7.09899155 2.25 8.75 C2.26417969 9.575 2.27835937 10.4 2.29296875 11.25 C2.46710812 16.3111287 2.46710812 16.3111287 5.046875 20.578125 C5.69140625 21.04734375 6.3359375 21.5165625 7 22 C3.20411134 21.45773019 1.52788007 19.79872437 -1 17 C-0.34 17 0.32 17 1 17 C0.67 11.39 0.34 5.78 0 0 Z " fill="#F6CEDD" transform="translate(266,307)"/>
<path d="M0 0 C1.43793392 0.31049726 2.8753318 0.6234776 4.3125 0.9375 C5.11300781 1.11152344 5.91351563 1.28554687 6.73828125 1.46484375 C9 2 9 2 12 3 C11.67 3.99 11.34 4.98 11 6 C9.88625 5.67 8.7725 5.34 7.625 5 C4.30540283 3.911357 4.30540283 3.911357 2 4 C2 3.34 2 2.68 2 2 C1.34 2 0.68 2 0 2 C0 1.34 0 0.68 0 0 Z " fill="#2C293A" transform="translate(178,198)"/>
<path d="M0 0 C4.38889325 0.66498383 7.9811485 2.18757677 12 4 C11.01 4.33 10.02 4.66 9 5 C8.34 4.67 7.68 4.34 7 4 C6.67 4.66 6.34 5.32 6 6 C6 5.34 6 4.68 6 4 C4.35 4.33 2.7 4.66 1 5 C0.67 3.35 0.34 1.7 0 0 Z " fill="#474556" transform="translate(198,204)"/>
<path d="M0 0 C2.375 0.6875 2.375 0.6875 5 2 C6.3125 4.625 6.3125 4.625 7 7 C4.36 6.34 1.72 5.68 -1 5 C-0.67 3.35 -0.34 1.7 0 0 Z " fill="#0D1220" transform="translate(417,232)"/>
<path d="M0 0 C0 0.66 0 1.32 0 2 C-1.75140143 1.54705135 -3.50107344 1.08741252 -5.25 0.625 C-6.22453125 0.36976563 -7.1990625 0.11453125 -8.203125 -0.1484375 C-10.65837303 -0.89598509 -12.75617405 -1.77123817 -15 -3 C-9.85902209 -5.05639116 -4.57080864 -2.55965284 0 0 Z " fill="#3E4552" transform="translate(233,218)"/>
<path d="M0 0 C1.0725 0.165 2.145 0.33 3.25 0.5 C7.03028752 1.08810915 7.03028752 1.08810915 11 1 C11.99 1.33 12.98 1.66 14 2 C14.6875 4.0625 14.6875 4.0625 15 6 C4.44191344 2.92482916 4.44191344 2.92482916 0 1 C0 0.67 0 0.34 0 0 Z " fill="#C8AEBA" transform="translate(216,211)"/>
<path d="M0 0 C2.31 0.33 4.62 0.66 7 1 C6.360625 1.103125 5.72125 1.20625 5.0625 1.3125 C4.381875 1.539375 3.70125 1.76625 3 2 C2.67 2.99 2.34 3.98 2 5 C0.02 5 -1.96 5 -4 5 C-4.33 4.34 -4.66 3.68 -5 3 C-3.35 2.67 -1.7 2.34 0 2 C0 1.34 0 0.68 0 0 Z " fill="#2F354A" transform="translate(205,208)"/>
<path d="M0 0 C0.66 0.33 1.32 0.66 2 1 C2.73075648 3.3140622 3.40138258 5.64828869 4 8 C1.69 7.67 -0.62 7.34 -3 7 C-2.625 5.0625 -2.625 5.0625 -2 3 C-1.34 2.67 -0.68 2.34 0 2 C0 1.34 0 0.68 0 0 Z " fill="#535765" transform="translate(257,199)"/>
<path d="M0 0 C2.50298434 2.93828597 3.46930939 5.17902761 4 9 C2.125 8.6875 2.125 8.6875 0 8 C-0.66 7.01 -1.32 6.02 -2 5 C-1.34 5 -0.68 5 0 5 C-0.66 3.68 -1.32 2.36 -2 1 C-1.34 0.67 -0.68 0.34 0 0 Z " fill="#21283B" transform="translate(386,174)"/>
<path d="M0 0 C0.33 0 0.66 0 1 0 C1 1.65 1 3.3 1 5 C1.66 4.01 2.32 3.02 3 2 C4.32 2.33 5.64 2.66 7 3 C7 3.99 7 4.98 7 6 C5.0085944 6.38133299 3.00720923 6.71325582 1 7 C0 6 0 6 -0.0625 2.9375 C-0.041875 1.968125 -0.02125 0.99875 0 0 Z " fill="#3D364B" transform="translate(268,331)"/>
<path d="M0 0 C3.96 0 7.92 0 12 0 C9 3 9 3 6.95703125 3.29296875 C4.97135417 3.1953125 2.98567708 3.09765625 1 3 C0.67 2.01 0.34 1.02 0 0 Z " fill="#0D101D" transform="translate(279,195)"/>
<path d="M0 0 C5.28497409 -0.44041451 5.28497409 -0.44041451 8 0 C10.5 2.5 10.5 2.5 12 5 C5.48603352 5.36871508 5.48603352 5.36871508 3.1875 3.625 C2.795625 3.08875 2.40375 2.5525 2 2 C1.34 1.34 0.68 0.68 0 0 Z " fill="#21283C" transform="translate(120,187)"/>
<path d="M0 0 C2 2 2 2 2.23046875 3.875 C2.21628906 4.57625 2.20210938 5.2775 2.1875 6 C2.18105469 6.70125 2.17460937 7.4025 2.16796875 8.125 C2 10 2 10 1 12 C0.34 12 -0.32 12 -1 12 C-0.67 8.04 -0.34 4.08 0 0 Z " fill="#DBBBC8" transform="translate(258,360)"/>
<path d="M0 0 C1.65588254 0.22779337 3.30152831 0.53231439 4.9375 0.875 C6.28134766 1.14957031 6.28134766 1.14957031 7.65234375 1.4296875 C10 2 10 2 12 3 C12 3.66 12 4.32 12 5 C10.58194169 4.71517632 9.16559621 4.42181856 7.75 4.125 C6.96109375 3.96257812 6.1721875 3.80015625 5.359375 3.6328125 C3.03168856 3.00849925 1.10968048 2.15161458 -1 1 C-0.67 0.67 -0.34 0.34 0 0 Z " fill="#4A5060" transform="translate(149,199)"/>
<path d="M0 0 C2.64 0.66 5.28 1.32 8 2 C8 3.32 8 4.64 8 6 C4.65750371 5.40312566 2.53563658 4.26396123 0 2 C0 1.34 0 0.68 0 0 Z " fill="#342E3F" transform="translate(164,172)"/>
<path d="M0 0 C0.33 0 0.66 0 1 0 C1.33 3.3 1.66 6.6 2 10 C1.34 10 0.68 10 0 10 C0 12.64 0 15.28 0 18 C-0.33 18 -0.66 18 -1 18 C-1.18451025 5.33029613 -1.18451025 5.33029613 0 0 Z " fill="#F6D2DE" transform="translate(260,344)"/>
<path d="M0 0 C0.66 0.33 1.32 0.66 2 1 C1.34 3.31 0.68 5.62 0 8 C1.32 8.33 2.64 8.66 4 9 C2.34385343 9.38218767 0.67542976 9.71395102 -1 10 C-2 9 -2 9 -2.1875 5.5625 C-2 2 -2 2 0 0 Z " fill="#4C3D50" transform="translate(270,291)"/>
<path d="M0 0 C0 1.65 0 3.3 0 5 C-2.31 4.67 -4.62 4.34 -7 4 C-6.67 3.01 -6.34 2.02 -6 1 C-3.90006779 0.25486277 -2.22568901 0 0 0 Z " fill="#2A3141" transform="translate(138,210)"/>
<path d="M0 0 C0.66 0.66 1.32 1.32 2 2 C1.625 4.125 1.625 4.125 1 6 C-0.65 6 -2.3 6 -4 6 C-4 5.01 -4 4.02 -4 3 C-2 1.3125 -2 1.3125 0 0 Z " fill="#20283C" transform="translate(223,189)"/>
<path d="M0 0 C0.66 0.33 1.32 0.66 2 1 C1.34 2.32 0.68 3.64 0 5 C-0.66 4.67 -1.32 4.34 -2 4 C-2.33 4.99 -2.66 5.98 -3 7 C-4.32 6.67 -5.64 6.34 -7 6 C-4.69 4.02 -2.38 2.04 0 0 Z " fill="#1B202E" transform="translate(206,137)"/>
<path d="M0 0 C0.99 0.495 0.99 0.495 2 1 C2.4140625 3.72265625 2.4140625 3.72265625 2.625 7.0625 C2.69976562 8.16722656 2.77453125 9.27195313 2.8515625 10.41015625 C2.90054688 11.26480469 2.94953125 12.11945313 3 13 C2.34 13 1.68 13 1 13 C0.40667939 8.62426048 -0.13827236 4.42471556 0 0 Z " fill="#DAE0EC" transform="translate(241,232)"/>
<path d="M0 0 C2.97 0.99 5.94 1.98 9 3 C9 3.99 9 4.98 9 6 C4.545 4.02 4.545 4.02 0 2 C0 1.34 0 0.68 0 0 Z " fill="#434754" transform="translate(115,186)"/>
<path d="M0 0 C5 3 5 3 10 6 C9.67 6.66 9.34 7.32 9 8 C5.4213696 6.34832443 2.25179812 4.21713508 -1 2 C-0.67 1.34 -0.34 0.68 0 0 Z " fill="#1D2335" transform="translate(310,158)"/>
<path d="M0 0 C0.33 1.32 0.66 2.64 1 4 C0.2575 4.268125 -0.485 4.53625 -1.25 4.8125 C-3.86636554 5.94229421 -5.80187111 7.20893202 -8 9 C-8.66 8.67 -9.32 8.34 -10 8 C-6.7 5.36 -3.4 2.72 0 0 Z " fill="#1A202E" transform="translate(221,125)"/>
<path d="M0 0 C1.56633048 2.48770135 2.04100928 3.65552204 1.6875 6.625 C1 9 1 9 0 11 C-2 8 -2 8 -1.6875 4.375 C-1 1 -1 1 0 0 Z " fill="#353644" transform="translate(327,341)"/>
<path d="M0 0 C0.99 0.99 1.98 1.98 3 3 C1.35 4.65 -0.3 6.3 -2 8 C-2.99 7.01 -3.98 6.02 -5 5 C-4.360625 4.731875 -3.72125 4.46375 -3.0625 4.1875 C-0.66868314 3.11332248 -0.66868314 3.11332248 0 0 Z " fill="#D9DDEB" transform="translate(408,325)"/>
<path d="M0 0 C2 1.8125 2 1.8125 4 4 C4 4.99 4 5.98 4 7 C2.35 7 0.7 7 -1 7 C-1.04254356 5.00045254 -1.04080783 2.99958364 -1 1 C-0.67 0.67 -0.34 0.34 0 0 Z " fill="#1A293E" transform="translate(271,292)"/>
<path d="M0 0 C0.99 0 1.98 0 3 0 C2.42647107 3.87132028 0.51295648 6.08172796 -2 9 C-2.66 8.01 -3.32 7.02 -4 6 C-3.01 5.67 -2.02 5.34 -1 5 C-0.67 3.35 -0.34 1.7 0 0 Z " fill="#343748" transform="translate(370,268)"/>
<path d="M0 0 C4.455 1.98 4.455 1.98 9 4 C8.67 4.66 8.34 5.32 8 6 C5.07120629 5.37240135 2.63904371 4.41377341 0 3 C0 2.01 0 1.02 0 0 Z " fill="#F3CEDC" transform="translate(230,213)"/>
<path d="M0 0 C3.15133488 1.83827868 6.11964908 3.75972706 9 6 C7.375 6.8125 7.375 6.8125 5 7 C2.75390165 5.53181864 0.97621323 3.84147142 -1 2 C-0.67 1.34 -0.34 0.68 0 0 Z " fill="#E3BFCF" transform="translate(163,173)"/>
<path d="M0 0 C-7.5 5 -7.5 5 -11 5 C-11 4.34 -11 3.68 -11 3 C-7.28026121 0.15549386 -4.62609198 -0.3227506 0 0 Z " fill="#F3CDD3" transform="translate(279,378)"/>
<path d="M0 0 C2.64 0.33 5.28 0.66 8 1 C8.33 1.99 8.66 2.98 9 4 C6.36 3.67 3.72 3.34 1 3 C0.67 2.01 0.34 1.02 0 0 Z " fill="#434858" transform="translate(127,191)"/>
<path d="M0 0 C2 4 2 4 1.625 6.25 C1.41875 6.8275 1.2125 7.405 1 8 C-0.65 8 -2.3 8 -4 8 C-2.68 5.36 -1.36 2.72 0 0 Z " fill="#323646" transform="translate(242,382)"/>
<path d="M0 0 C0.66 0 1.32 0 2 0 C0.125 5.75 0.125 5.75 -1 8 C-1.66 8 -2.32 8 -3 8 C-2.25 2.25 -2.25 2.25 0 0 Z " fill="#F3F5F7" transform="translate(367,280)"/>
<path d="M0 0 C1.32 0 2.64 0 4 0 C3.38722388 2.96175123 2.74627478 4.38058783 1 7 C0.34 5.02 -0.32 3.04 -1 1 C-0.67 0.67 -0.34 0.34 0 0 Z " fill="#151A2C" transform="translate(281,197)"/>
<path d="M0 0 C1.32 0.33 2.64 0.66 4 1 C4 1.66 4 2.32 4 3 C4.9590625 3.1546875 4.9590625 3.1546875 5.9375 3.3125 C6.618125 3.539375 7.29875 3.76625 8 4 C8.33 4.99 8.66 5.98 9 7 C7.68 7 6.36 7 5 7 C5 6.01 5 5.02 5 4 C4.360625 3.71125 3.72125 3.4225 3.0625 3.125 C1 2 1 2 0 0 Z " fill="#23283F" transform="translate(139,183)"/>
<path d="M0 0 C0.66 0.33 1.32 0.66 2 1 C-1.63 2.98 -5.26 4.96 -9 7 C-9 6.01 -9 5.02 -9 4 C-7.54618103 3.30300448 -6.08677047 2.61766134 -4.625 1.9375 C-3.40683594 1.36322266 -3.40683594 1.36322266 -2.1640625 0.77734375 C-1.44992188 0.52082031 -0.73578125 0.26429687 0 0 Z " fill="#202435" transform="translate(253,110)"/>
<path d="M0 0 C1.64826111 2.96687001 2.44271087 5.65626525 3 9 C2.01 9 1.02 9 0 9 C0 6 0 3 0 0 Z " fill="#1B2438" transform="translate(243,379)"/>
<path d="M0 0 C0.66 0.33 1.32 0.66 2 1 C-0.97 4.96 -0.97 4.96 -4 9 C-4 5.28703828 -2.65223411 2.65223411 0 0 Z " fill="#1E2231" transform="translate(405,344)"/>
<path d="M0 0 C0.66 0 1.32 0 2 0 C1.74438677 2.3431213 1.40729228 4.67843403 1 7 C0.01 7.495 0.01 7.495 -1 8 C-1.04241723 5.66705225 -1.04092937 3.33297433 -1 1 C-0.67 0.67 -0.34 0.34 0 0 Z " fill="#3D4152" transform="translate(410,252)"/>
<path d="M0 0 C1.0625 1.8125 1.0625 1.8125 2 4 C1.67 4.99 1.34 5.98 1 7 C-1 6 -3 5 -5 4 C-3.35 2.68 -1.7 1.36 0 0 Z " fill="#E9CCD3" transform="translate(326,249)"/>
<path d="M0 0 C2.31 0.33 4.62 0.66 7 1 C6.67 1.99 6.34 2.98 6 4 C3.69 3.67 1.38 3.34 -1 3 C-0.67 2.01 -0.34 1.02 0 0 Z " fill="#423D4C" transform="translate(217,194)"/>
<path d="M0 0 C4.40114397 0.50298788 6.71195019 2.08772731 10 5 C6.26879511 5 4.21944311 3.81968524 1 2 C0.67 1.34 0.34 0.68 0 0 Z " fill="#1B1E29" transform="translate(269,190)"/>
<path d="M0 0 C1.65 0.33 3.3 0.66 5 1 C5 1.66 5 2.32 5 3 C-0.41538462 4.23076923 -0.41538462 4.23076923 -3.375 3.0625 C-3.91125 2.711875 -4.4475 2.36125 -5 2 C-3.35 2 -1.7 2 0 2 C0 1.34 0 0.68 0 0 Z " fill="#CBAFBC" transform="translate(200,191)"/>
<path d="M0 0 C0.99 0 1.98 0 3 0 C3 1.32 3 2.64 3 4 C3.66 4.33 4.32 4.66 5 5 C4.67 6.32 4.34 7.64 4 9 C0 2.25 0 2.25 0 0 Z " fill="#1F2339" transform="translate(331,182)"/>
<path d="M0 0 C1.98 0 3.96 0 6 0 C6.33 1.65 6.66 3.3 7 5 C1.125 2.25 1.125 2.25 0 0 Z " fill="#232735" transform="translate(301,153)"/>
<path d="M0 0 C0.33 0 0.66 0 1 0 C1 1.98 1 3.96 1 6 C-1.97 5.505 -1.97 5.505 -5 5 C-4.360625 4.731875 -3.72125 4.46375 -3.0625 4.1875 C-0.66868314 3.11332248 -0.66868314 3.11332248 0 0 Z " fill="#363847" transform="translate(407,253)"/>
<path d="M0 0 C2.475 0.495 2.475 0.495 5 1 C5 1.99 5 2.98 5 4 C4.01 4 3.02 4 2 4 C1.34 2.68 0.68 1.36 0 0 Z " fill="#4C5061" transform="translate(271,193)"/>
<path d="M0 0 C0.33 0.99 0.66 1.98 1 3 C-2.01031744 3.93423645 -2.86650268 4.04449911 -6 3 C-6 2.34 -6 1.68 -6 1 C-3.92446352 0.4465236 -2.15634036 0 0 0 Z " fill="#E9BFCD" transform="translate(169,190)"/>
<path d="M0 0 C2.475 0.495 2.475 0.495 5 1 C5.33 1.99 5.66 2.98 6 4 C4.35 4 2.7 4 1 4 C0.67 2.68 0.34 1.36 0 0 Z " fill="#EDD1DF" transform="translate(167,179)"/>
<path d="M0 0 C0.33 0.99 0.66 1.98 1 3 C1.99 4.485 1.99 4.485 3 6 C2.67 6.99 2.34 7.98 2 9 C-2 4.375 -2 4.375 -2 1 C-1.34 0.67 -0.68 0.34 0 0 Z " fill="#202537" transform="translate(325,168)"/>
<path d="M0 0 C0.99 1.32 1.98 2.64 3 4 C2.34 4.66 1.68 5.32 1 6 C0.01 6 -0.98 6 -2 6 C-1.34 4.02 -0.68 2.04 0 0 Z " fill="#1F2637" transform="translate(373,150)"/>
<path d="M0 0 C0.33 1.32 0.66 2.64 1 4 C-1.475 5.485 -1.475 5.485 -4 7 C-3.43628586 3.73045798 -2.50037734 2.17424117 0 0 Z " fill="#181C29" transform="translate(198,144)"/>
<path d="" fill="#FFFFFF" transform="translate(0,0)"/>
<path d="" fill="#FFFFFF" transform="translate(0,0)"/>
<path d="" fill="#FFFFFF" transform="translate(0,0)"/>
<path d="" fill="#FFFFFF" transform="translate(0,0)"/>
<path d="" fill="#FFFFFF" transform="translate(0,0)"/>
<path d="" fill="#FFFFFF" transform="translate(0,0)"/>
<path d="" fill="#FFFFFF" transform="translate(0,0)"/>
<path d="" fill="#FFFFFF" transform="translate(0,0)"/>
<path d="" fill="#FFFFFF" transform="translate(0,0)"/>
<path d="" fill="#FFFFFF" transform="translate(0,0)"/>
<path d="" fill="#FFFFFF" transform="translate(0,0)"/>
<path d="" fill="#FFFFFF" transform="translate(0,0)"/>
<path d="" fill="#FFFFFF" transform="translate(0,0)"/>
<path d="" fill="#FFFFFF" transform="translate(0,0)"/>
<path d="" fill="#FFFFFF" transform="translate(0,0)"/>
<path d="" fill="#FFFFFF" transform="translate(0,0)"/>
<path d="" fill="#FFFFFF" transform="translate(0,0)"/>
<path d="" fill="#FFFFFF" transform="translate(0,0)"/>
<path d="" fill="#FFFFFF" transform="translate(0,0)"/>
<path d="" fill="#FFFFFF" transform="translate(0,0)"/>
<path d="" fill="#FFFFFF" transform="translate(0,0)"/>
<path d="" fill="#FFFFFF" transform="translate(0,0)"/>
<path d="" fill="#FFFFFF" transform="translate(0,0)"/>
<path d="" fill="#FFFFFF" transform="translate(0,0)"/>
<path d="" fill="#FFFFFF" transform="translate(0,0)"/>
<path d="" fill="#FFFFFF" transform="translate(0,0)"/>
<path d="" fill="#FFFFFF" transform="translate(0,0)"/>
<path d="" fill="#FFFFFF" transform="translate(0,0)"/>
<path d="" fill="#FFFFFF" transform="translate(0,0)"/>
<path d="" fill="#FFFFFF" transform="translate(0,0)"/>
<path d="" fill="#FFFFFF" transform="translate(0,0)"/>
<path d="" fill="#FFFFFF" transform="translate(0,0)"/>
<path d="" fill="#FFFFFF" transform="translate(0,0)"/>
<path d="" fill="#FFFFFF" transform="translate(0,0)"/>
<path d="" fill="#FFFFFF" transform="translate(0,0)"/>
<path d="" fill="#FFFFFF" transform="translate(0,0)"/>
<path d="" fill="#FFFFFF" transform="translate(0,0)"/>
<path d="" fill="#FFFFFF" transform="translate(0,0)"/>
<path d="" fill="#FFFFFF" transform="translate(0,0)"/>
<path d="" fill="#FFFFFF" transform="translate(0,0)"/>
<path d="" fill="#FFFFFF" transform="translate(0,0)"/>
<path d="" fill="#FFFFFF" transform="translate(0,0)"/>
<path d="" fill="#FFFFFF" transform="translate(0,0)"/>
<path d="" fill="#FFFFFF" transform="translate(0,0)"/>
<path d="" fill="#FFFFFF" transform="translate(0,0)"/>
<path d="" fill="#FFFFFF" transform="translate(0,0)"/>
<path d="" fill="#FFFFFF" transform="translate(0,0)"/>
<path d="" fill="#FFFFFF" transform="translate(0,0)"/>
<path d="" fill="#FFFFFF" transform="translate(0,0)"/>
<path d="" fill="#FFFFFF" transform="translate(0,0)"/>
<path d="" fill="#FFFFFF" transform="translate(0,0)"/>
<path d="" fill="#FFFFFF" transform="translate(0,0)"/>
<path d="" fill="#FFFFFF" transform="translate(0,0)"/>
<path d="" fill="#FFFFFF" transform="translate(0,0)"/>
</svg>
