<svg id="visual" viewBox="0 0 900 600" width="900" height="600" xmlns="http://www.w3.org/2000/svg" xmlns:xlink="http://www.w3.org/1999/xlink" version="1.1"><rect x="0" y="0" width="900" height="600" fill="#000000"></rect><path d="M0 509L30 497.8C60 486.7 120 464.3 180 416.3C240 368.3 300 294.7 360 305.2C420 315.7 480 410.3 540 456.5C600 502.7 660 500.3 720 456.8C780 413.3 840 328.7 870 286.3L900 244L900 601L870 601C840 601 780 601 720 601C660 601 600 601 540 601C480 601 420 601 360 601C300 601 240 601 180 601C120 601 60 601 30 601L0 601Z" fill="#715DF2" stroke-linecap="round" stroke-linejoin="miter"></path></svg>